<mxfile host="app.diagrams.net" modified="2023-09-17T04:39:03.279Z" agent="Mozilla/5.0 (X11; Linux x86_64) AppleWebKit/537.36 (KHTML, like Gecko) Chrome/114.0.0.0 Safari/537.36" etag="Q2BbGTacxaugbr62KCAK" version="21.7.5" type="github">
  <diagram name="Page-1" id="TQdZl_KKabBrOX24cG97">
    <mxGraphModel dx="1602" dy="775" grid="1" gridSize="10" guides="1" tooltips="1" connect="1" arrows="1" fold="1" page="1" pageScale="1" pageWidth="850" pageHeight="1100" math="0" shadow="0">
      <root>
        <mxCell id="0" />
        <mxCell id="1" parent="0" />
        <mxCell id="oEiYPniJlEZaM68x3fOY-1" value="" style="shape=image;imageAspect=0;aspect=fixed;verticalLabelPosition=bottom;verticalAlign=top;image=data:image/png,iVBORw0KGgoAAAANSUhEUgAAAfEAAACyCAYAAABSifYLAAAABHNCSVQICAgIfAhkiAAAABl0RVh0U29mdHdhcmUAZ25vbWUtc2NyZWVuc2hvdO8Dvz4AAABAaVRYdENyZWF0aW9uIFRpbWUAAAAAAFRo4bupIHPDoXUsIDE1IFRow6FuZyA5IE7Eg20gMjAyMyAxNzo0ODo0NCArMDebdzsoAAAgAElEQVR4nOzde1hVVfrA8e8+HGBzPyggeAUlFTQT1BRSS0xL1DS1LCy7mE0NVvNLqynNZkydMm3KQWcqsdtgN7XM0UwTp2wwM8EreEEQUUEUucjlAOewfn8cREk0yQsefD/Pw6Ps21l7n5f97rX32mtpSimFEEIIIeyOobELIIQQQojfR5K4EEIIYackiQshhBB2SpK4EEIIYackiQshhBB2ytjYBRBCiKbkL3/5S2MXQdiZS4kZTV4xE0KIy0fTNF555ZXGLkaTpWlag5a/1lPcX//610sqoyRxIYS4jDRNu+YTh7h2XGq8NOh2ekOvgIRorJOZm5sbZWVljfLZwj6Vlpbi6ura2MUQokEa/ExcrjDFxWrsiz45KYuL5ebm1thFEOJ3kdbpQgghhJ2SJC6EEELYKUniQgghhJ26Iu+JN/az0MvpYtoANKX9vVhNoW1EU/reJE7rdy3HaVP6PiT+6nc14u+KdfZSoPZeqU1fFSY6NijoDhZduyeLy6mdZ9P6Y5Q4bZrsJU6vp/i7XmLvtECvqxN/cjtdCCGEsFOSxIUQQgg7dU0k8YovpuDvcR9xu86amL6YEVGLyWrAdn54eiDjPy6+3MW77Cq+Gken5uHM3Vl3evqb4XRqOZo15gusmxrP9JGRDL0zklG3hzN05CQ+SzWfNX8Js+4L5/ZeodweEcrQ+6bwWUqhbaYlhbjbwolLvQI7dR2QOLWROG0cdh9/lhTi+rrQK8z2nd/eqz233/kYH+28QCBdQPY3y9n9+1Y9x4Xj1Uz2ymk8cXtNuSPCiXl6HknHamYfXUBM2CSSLJenLA11TSRxAP/OFXz80tIGBaM982tvJmn5pjMTLCmsWWumTQv9Amtl8tHz86iIXc2qNUks/y6ZD+4r4LO3l3Mc4Gg8z4yLg4dWs2pLKt9tSuWDP8Bn40fz0b4rvEPXCYlTidPGZPfxZwzhoQTbd/7dlgw+eaKc9/5vHukN3lAma95JYFfp5SjUheO1+JtJPDI7lyELk23l3pjIlA6JvDB22mW7iLgU10wS9+r3JJP0BGZ+Uc8VYmEKcffex+DBDzGi332MfyOFIgDLAT4efx+39nuc8TGvs/Lw6RWK+eHVpxjR7yFGDL6PEY8uZd81cLDP5nxzFH4blpF8+upt5zISW0XRQwdOLuGZXuNYU1Qzr3Q1L/QazYp8MxVm4KwrPt/7Elj+Tgy+wO73F5A+ZB5ThvjjfHr+gLm8OqaAjz4460QsfjeJU4nTxtTU4s+3XxTBh1LJtkDFznheGBZJzMiBjLpzKHPX5dpKuXEWT9x5evpo4jYVkh4/iY9+TuKjP0xhzTEzuxeMZmjfgTxy3zjipo+mX+xqIJePxkTywkvjiBk2jSRLIUlzRhNz50BiRkYSExtPuhngQvGay1fvJNLlpbmM6Fhz4Wo0Ef5MHOPd43l3XeP/wV4zSdyML/fOHkPe7Lf4oaTuvB1zZvBF5+msXPshK9a9QLslM1i0DSpW/pN5J8bwxcZ3+WjxYLwyjwNQse4tXt45mPc2fsiKtR8y2T2Bae+faIS9ugCvaEZ2SeSrjbYgSP4ykRuGR+NpAZqNYmS/FL76xnZ7seKH5Wy9eRx3Ng9h7AujyH4+hNuHjWP6nAWsScmlAgAz6WmZBIeH1Z4YTwu+OZyifam2WpC4JBKnEqeNqWnFn5nsb1aTHhpJsDGTj16ch/MziSz5aj3L50eR/NJMksxmNiyKx+v09IUT8DyRQ/BD07izVTjj35nLnSQw9186T61az/ufzqNNRhJmBwAdZ9LYb5rC+/+ZSY+N05i1ezRvr1nPkq8SmeS2gFkJucAF4tWSyu4DQfToYfpV2YPoEe5NdlrmVTxe9btmkjiAc/AYXh2eysw5qTV/8AAn2L6tmJv7hdr+6PUw+oflsX1nMVm7DuPVMxS/mum9e/kCkPVLClkpCUwc/BAjBj/OvC1QmJ3dGLt0Ad5Ejgxn65eJVJgT+ebnUO4c4F0zT2fA/aPIXprAccwk/SeZyPuicQZ8B81kSUoa/5o6mi6k8dkfwxj67GqOc/4rwl+fLMWlkTiVOG1Mdh1/lkw+nBDO0NvCGdo3kmfWhDB1fixtzCns2hdCj8ia2m77SLoY09h9VCdyeAS7pg/lmenzWHEkhLHDQ+puc18K6R0i6eEF4M+AYZFn5hm96drLdsGYnZJE9o44nhk5kJiRQ4lLhqLDtiR8wXi90LPuK/aS9sW7BopwNme6Pf8nbur3Ou/1uvUilq+o+6vl9AnCmXb3TGfF7NDLXcDLyrNfDD1mxbNmnTdbu8UwxQ2STs/sNY6R5kl8tTOA9KxoxkfYgruiyIyzl4ngiFEER4xi7B8ieaJXPEmvRBN8QxDpyUlUjImqc0LcnZyMV+gEfK/2DjZZEqcSp43JjuPPGMRD7yYz6dcfeb5rOyP4jklg1aBMkjasZsPbQ3l3ZRzLZ7ucs1z9dJz1M/9vM3IBS14JO2ep88frXLp0SGXr1kLGtzy7Np7Lrh1mbvhD0G/t8RV3TdXEAXDvw7SXfPl49lpsN+l8uKmnJz9vrGmqak7hh5Q23NTLkxadO5D7Syp5ACUp/LDlFADteoZStOF7dpgBKtjxz9dZtK2ivk9rXHoUI/tn8u7ryfS4O+pXNZEQRt6j882LC8iOGkcXI3A0nif6jua9s1r5Fu9LJc8rAF9n6PLgBNqsnMbcDbln5m+ZxaylAYx/OOJq7dX1QeK0hsRpo2hq8aeH0SM0ja0/18RMRiJbCaNHy1w2vL2AJEsQkSNjmTpjHM47NpENtsRtAdqF0OZASk0jt1w2fJNU70e0CQuneOPqmsZoZnbHT7G1jL9gvAYx5LEokmdPYc2hM63V0+Nj+ahkAuMHXKiB59VxjdXEbbzu+ROT3r+b52yxRrdnp3PPH19n8GBnXMor8Ht8OtM6g3Pgkzz3xRSGR6ykXZtQOoW1Bgs4D/oT83+aypQBD+HiUgGBY3j1kWvzZl343VGwzsyQXufO8x02Dr9Z8UQurLl91HICc97M5eVnw/msRMfZCJjCGfvuXCJ1oH0sb78Ls2ZFcfvLOs6YwSeSse8mML49toC3pPHhuFC+Oh17ztHM+G4ukddkJFzbJE5tJE4bR9OKvyDGzp7M9JeiiFngDWadqDnxhBtNZLdL44WxkcS5u4BZp8cz8QQbdXr0ymTW2HHw7gImjVnOrDsG8lGHECLbh6Pnn/sJzgNm8vqWCbw8bCC6Xg7tJjB1nA76b8TryHj+VTKFWTHhzDXqOFeYce42jhkJU+lyOj6PJfBCv8TaC1zn8GlX57ABmmpA566apl10H7lNpTvBi93fK9Gl4PGvxvHwN6P55J1ReDZ05UMLiBmRxNg1CYxocfnKdLo7y4s9Lo3Vd7WbmxvHjx+/4HjiEqeXh73HKVxcvFwsOU/WL+uKvZqeS/LSZDyHRROsw+45kbxsjGf5syG/vWoDFS8dzdBPo1jyaSxtfuOCMtDr6pwnr73b6QJI46MJ4dy/KIApM37HiRGg7QSmToJ3h4UT8+wSrrXmUqIpkDgV1wIdjsTz/J2RxAyL5OUdQ5ky4fIncADPkXOZ0jKBR/pF8kx82hX5jIaSmvh5XAs1nGuR1MSvLRKn9ZOa+NVxbdTEr01SExdCCCHEBUkSF0IIIeyUJHEhhBDCTkkSF0IIIexUk03iWSvX1nRicP26nEP1iStD4lTitDFJ/Nl//DXRJH6Ylf9YyfaS316y6bqcQ/WJK0PiVOK0MUn8NYX4u3r9H5WksuiPr/N5LriUg9+oPzH3/8I49veHmLj/Sb5e2AevXYsZ8chhJq97lH33PsXmrn1wKTxO7v7D+D86l/mPtKZi21Kee3YpWUZnysud6f/SbKYN8WHfq/fxXHYYXmkHCOoPKzbtxmv865gWv8DgwpVMezqBfTiDxZNeL77CtEGwKHoSOzq3Jmtbayav/RP9r/TRKE3ho2en8NUx0M3gO3wmr8ZGkLdgIM8cmMonb0bhmTqPmD9mMmnFZNIfGs3W0Cj0ohzyDmTi90ACrz8QRMXOeKa/GE+20QWzWSdycjxTBvmTPieS6Ycj8dyXRrtIWP1zMp5/mILXgrkMKFrCrOfjSMcFLCbCJy9gygD4aMwodncMIntHEJO+mik9YkmcSpw2Jok/ib+GUg1wsYsDqkDtrfPz/cthqv+b622/V61W0/qEqmk7bf9/Y0iYmpT4pXpjeJialLhDFaj/qTcGOatec1bbls+ervoHjlGfl69Xrw7ooB5bvcM2Pe0F1b/zOLWifK/aPDtMeQ2ZrrZV7VUFVZ+qSZ1vVfOP71UFar16Y1CYmrxlR+22BnUdp1ZUbVHzh3iqXjO+VLm/KmuB2tvg/T1YpH7zZ9XzESpydobt9/xUNaVXmJqyyfb/GYMi1MT/JKsZQyLUxP+Uq4NFOWrGAF2Fz0i1LZ8WpyLbTlDvH8tQU/uFqPFLy23Tt8xVkR1j1ZJjSn33SoTyHBSnNuYrdTA/SU3sGK1ez1DqYFGGmjEgQk36b3nttgaExqol+QXq9UEmFT41We29iPIfLGp4HDQWV1dXVVpaesFlJE4lThsSLxdLzpP1u5jvranE38Giq3eevErXEyfY/ssBso5PZcQ3tinl5gpuyqyArh14bP5w7h0ykc13x7FygDNwCmhN74gOtoX9Q+nmvpa9B1LZntaBO/rV9FAbHEY34/fsOAz+QLueYbQ73Sn+aeZUNm/JZt9Lj7MFgAoKaU3WCcDoyU19Qq/SEIi57EpJI/vEY8Ssqyma2UzXLDOEhjB+zjgeGR3N1uHL+aTf6Q55g+hxc03PQ37hdHFfTvpB25B9UXWG7FvN7qPgB7QJi7R1B1jnGKSwNTmT9L8OJRmAcooIIjufOkP1CYlTidPGJPEn8ddwV/GmgCf9Z3/I/EHnzqk4cZxC3YuKw4cpIsw27u2vXcSYrs4u5znEejhPLf8HY9zPnljMxziju9S/ypXhTeQr63l9wLlzKvJzKNK9qTiSSTER9Q/HeFHH4Dyj6uiRPJ6wjBFuZ08s5LM6Q/UJiVOQOG1MEn8Sfw1zlRq22YbJ27zyJ9vItpbDLH1pMT8UAuYU3nguhbs++Ygp+mKmfnKiZp3jbN54wPbfgynssLSmW4dQet94gM2baobLS/+JzYTSu3U9H3n6KksPpfeNqXy7sma7ud8zb/r3tmH5rip/uoaZ2PpNYs0xyGTFX+eRVASYN/GPlzcxJD6Rp/S5zFx6eojGHLZuqumf91ASuy1BdAk835B99Xxk7TEIo0doConf1Gz32GriZq3m+BXcW/skcSpx2pgk/iT+Gu6q1cS7PT+LiX+cwfAoZ1yqwO+uPzHXVMGWl15nS/R0VnT1gdmP8vWQv7K03yuAL/7HE5h472Gy9hfTecZc+uut6f3mozz37EOM+LsnmJ25Y/4sehlhX5296sDNEYd5efgU+HguD85/kh1PT2Lw+85Q08ij3qvYK6zLn+IZ/2ws9w9zQbeA75CZvOplJvmvk0kevIAlof4wfQrfjI5lReQCIAC/Ewt45qFMsg8UcMPUBCL1IHrUO2QfpNc5BiFnDdWXwNg5U9n9/ChG/ds2nF/k5Pj6r2KvcxKnEqeNSeJP4q+hrtEBUE6waPBEcmd/ybSel7CZS9D4A0vk8tHIaPJeSWZK2GXe9CWQAVDOJnHaFOIU7HUAFPuKvyszAMq1GX8gA6AIIYQQ4jdcozXxxtf4NZxrk9TEry0Sp/W7Pmrija/xa+LXrqtVE79iz8S9tU5XatPXpEAvrbGLIH4HiVPRmK6n+JPYuzKuSBJvrNpXY7ne9repuN6+t+ttf69119v3cb3t79Uiz8SFEEIIOyVJXAghhLBTksSFEEIIOyVJXAghhLBTksSFEEIIOyVJXAghhLBTksSFEEIIOyVJXAghhLBTksSFEEIIOyVJXAgBgFK2XrXKyiv597+TmP/WOullS4hr3FUbT1wIce1RSrF86VZS9+dgdDBgLqsk6/BJdicfojSzhKeeub2xiyiEuABJ4ldIRl4B/9iwjQ4+njzc90bcnZ0au0hC1HHkSAFz31xDROQN3DnkRsxVVrp2DmD6m6t4/4U/sHTpL4AMWmHPLBYLxcXFlJSUUFlZicFgQNd1XF1dcXdzw8FopLq6muLiYk6ePInZbEbTNNzc3NB1Z/Ly8jh4MIvc3FxKS0vRNA0/Pz8CAwMJDAzE18cHo6NjY+/mdU2S+BWSmHaIRyND2ZGdz1MfrWdEjw7c2MqXAJM7rs4S9KJxlZZW8OcXvuDDjyeydVc2Y3u9xoS3RpB5NJ/WrUyY3HS63dAKTXK4XaqurubQoUOsWLGCH374gSNHjmCxWDAajXh5eeHv70+nTp3o1asX2dnZrF69moyMDBwcHHBwcMDFxQUPDw+OHTtG69at8Wvhh5enF6VlpWzalMSePXtp1qwZo0eP5oEHHsDT0xNNgqVRXJHxxAX8uC+bg3mFxNzSlZOnyvjnhu3kFpdxssTMrR1bcW+fzjRzc2nsYl5R1/p44tezybGfMPFPA+h8gz9WazXHC0rw9/HkZFEpn3y2hRu7tiTy5mCMxuuj2UxjjCd+pVgsVXz77VoWLlxI27ZtuTXqdjx9WlJp1UBpODooKkpPcmBPKukH9lNYUMCIu0fhHRBEqVlhUQoXR41mbo60a+nL0WILW/bmUVZhxcnBgJeLkRaeBqpL81i+9HOysrJ47bXX6NWrlyTy3+FS40WS+BU048uNjI0IpZN/c6zV1VSjYdTg6+R9vLV+Ox88egftfLwau5hXjCTxa1Pi+lRy808Rc2/vOtOt1mrmzFtD1G2d6X1z+0YqXeNoKklcKcXPP//MCy+8wLgHH6Jl596s3JTFgcOFFJ0yoynw8HCmmadOcGtvHryjE3n5Rfwn6TA704+Tc6IUZVW4eTjRyteD7p39uKmTP3syj7Nk1W7yC8rRNI0Wfu706daSUX0DSd2ygU8SEnjtb3/jllv6yhOYBpIkfg2rsFiY/MkG5j9wO4dPnuK9DduYMaY/GpBbVMLLS39kRFgwQ8ODm2TcSxK/9hzPK2Z45Jus2/ZnPNz1OvNmvPEfRg3pTteurRupdI2nqSTxsrIyYmNj6d69O/5do5j5/k8UF5rrXXbALYGMuyOUGYuTOHSw8LzbbObryjP39aCZlyt//edGTuSX1c7z83NjVuytHNyayL///TGJiYkYjfKUtiEuNV6uj3tljcTJ6ECVRZGdX0yb5p5MuO3G2mTt7+XOvHED+HJ7Omt3ZjRqOcX1Y8mSzbz7n4nnJPC8/FP8b/luQkJaNlLJxKVSSpGamkpWVha9+w/kw//sOm8C923uRuyYcN5dsZ3srPMncID842XMXpTE7qx8nn8kAncP59p5eXml/Hn+BvoPvgulFNmHsi/rPonfJkn8CtLQeDa6B1syc9GAQB/vOvM9dWcWjrud977fwd6c/MYppLhu/LBhL5mpx7ix07mJOutgPn+dOxoHBzkl2LO9e/fi6+vLnpwKDh4trncZBYR1bcHe7JNsSz1G9W9UAjWgotzKO0u2Yqmy8vBdN4LDmfkn8svYn11It27dyD4sSfxqk7/YK6xTi+YkZ+ZwsqS83vnOTkZeHNqbuPXbsP7WX5MQv1NJSQXvf5LE3995oN7GRwWFpfS5JbgRSiYup2PHjtG+QwfSDp6ktKyy3mU0A9wZEcSXG/ZTVWa56Ed5yqp448PN9OveBj8ft7O3yClzFSaTCQcHh/OuL64MSeJXwYRbu7Egcdt55/cICsDTzZm1u+W2urj8dmzL5uk/f8qc2WPO+8rYyZMlV7dQ4oo4deoUzZo1p8xstVW56+Hh5oynq87R3GIUoGnK1lvfb2xbKSgqMfN1Ujp/euBmHBxqgkkDDxcniouLaNO6zeXcHXERpAXCVfDjviOM6XnDBZe5s0sgn/28hztv7NAkG7mJq6uy0sKqr7Zx4NAJ2gY2519/fwAnx/PXkn76JZP77ul93vni2qdpGk5OTiigWjt/SvbzdQMFrf09Gdg7iODWXhzOK+abHzM4fPRU/ev4uHLvnSEEt2pGM29XurRtxizdSGlpFQaDRotmrpw4kU8L/xZXaO/E+UhN/Co4erKUIN8Lv0rW94ZWlFZUcqxIakSiYZSCU8Vm0vcc4733vuflqct59LHF4GXk2cl3cO+YXhdM4Hsyj6EXy6VjU+Dn50fByXzcnI1o56kO+Hm70qGViefH98HDw4m8U+X4+3ry4iO34OHufM7yVUox+eE+eLg6o7s6snZTBlQbah/L6I5GWjRzxWAw4Ox87vriypKa+FVQqawYDQYKS80cKy6lU0Dzc5bRNI2YPqG8suJ//PPBwRik0wTxG6qrq1m5chtrV++ibSc/et3Ylt59OhDzQASuutNF97b23apd3P1wzytbWHHFKaVo07oNSZs2Ed7LAyfdQIXZes5yDg4a2blFPP/3/3L8VBl/HBtOeUUlXq7NaO7twqmSirrbddRo7ePB259sYdDN7dmXeZIKq5UqSzUAnu5OHM06gK+vr+2evJy6ripJ4leDplFpsfLp5jR+TD/Cx48PqzfOb+vchte+/YWTpeX4uMv7zaJ+Vms1mzcdYMWyZELD2vDWgnE4Gn9/g6KMA3lMmjTwMpZQNAZN02gX2I7SkhKC/T1wd3Wmwlx2znLmSitFpVUcyy+lGsXiZdtRGkx+4GY6BTUn61Ah6qwTlJMFjA4GCoor+GD5dgb1CuRkURnWqmqsmmLEwBtYvvRzbrvtNkngjUBup18F3dr4kph2iI83p9G5hTfbso7Vu5yjgwP/emAgj/17HbH/XkdBaf0t2sX1y1xRxZdLkyksNfO3effy0PjIS0rgxSUVOEqL4iajZcuWODo64koZnm5O1PdoXKsGZQAr1WhAaVkVZaVVlFdY6NGxRZ0EDmDVoLjUjL+PGwYNNKOGuaIKBehORu6J6sjWrVvp37//1dhF8SuSxK+CwV0DWZ96CN3RkacH9+Sb7RlUVFnqXfYGP2+WPj6cZwb14J0N2/js5zTpJU/UeuuttfToE8iQwV0xGC6t2mOxVjPx0Xi6d7r+emhrqtzd3enUqRPHc7IJbutdb8XYydGAAVAOWp0W6UoDV1fnehK/4usf0pl0XzgOjg6YKy0093RBM0DPzv5olSUMGDAAb2/vX68orgJJ4leBm5Mjr997K1/G3oWnizPjbwllS8bR8y5vNBjo2KIZLwztg6ujkXf+u+28SV9cHxTw4eIf6X1ze4La+Vz0QBNFJeXMfunrOifrxM37qLJYWffdbsqLK3H30M+7vrA/vXr1Ii0tjU5tvOq9ve3r5QpK4aDObvqm4YBGzolT/Loq7qA0Nu84Ss/gANq18uLkKTO6qxMGg8awW4P55/wFDBs2TAY/aSSSxK8SJ6MDni62lputm3vRo31Lcgrr71EJYPOBI7zw2X9ZkpTGd7uyOFpY/6sf4vqQfSifUmVhwICQBq338+ZMsgoLa0/WxSVmJo//mJWrt3Mg4zivL7yf/Hx5I6Kp0DQIDQ0lLW0PLb0dcPM4t7W4k9GA1apsrzVgu0C0GsDfz4P/pRymWqs+Z53cEyUsWrmN0bd3otJixYBG+7bedPbT2Jq8lZCQzld618R5SMO2RuLiaEQ3eZ53/k+ZOZRbq1k8cQi6owOaJtdb15PjJ4rZt+cYeXnFHMsr5sCRE7w6bSQA1UqRtDWDwwdOoKzKlqCNBly8nOlxUzta+5tsy1Ur3n37Ox59Oqp2u9+v38OJ9OPMeHYpP+3+K7qzI5+d/KkR9lBcGRo+Pj4YjQ54OJQRGODJzlPH6yyx72ghA3sH4uDigKXMChq4exjx9XLh0LHiemvUBjQ+W7OHhFkjKCgyU2GpIvbecL5Z+Tmv/e01dGe5m9NYJIk3ogvdfHritu589OMuHln8La+N6Uugj+mqlUs0jvKySr5du4tjBwtxcnGidRcfQrq3ZqCvF25uThg0jR+S9rP55wz8XF2JGhKKh4dtTPrKSit79+aw8v1fqKywcOjYSfbsyiH3UAERN3cA4OixIpZ9soXNWX/jtelf8+wfl9C+lQ/JP2bwn7BtDBvWvTF3X1wmuq7Tt29fDu5Po3e3m0hNP1GnS+fU9BMUl1cxqm9HlifuwWpVPH1PDzakZHGy6PyNacsrLaz4fi+xY3qwcfdhOnhaWX3kCD179eSi32cUl911MRSpucpCdbXCYNDQHc+9bimvrEIphcFgqHf+BVVXQuVxUNXg7AMGl3OXURaoyANrOTiawKkZdVK4qgJrBRicbD+nJwMZeQV8/L9UHogIIdi/WcPK1shkKNKGKS2t4Ik/fET60XymTR3G0IFdAbBWK/KOF/N23DqG33kTt9xy4d7/Tvsp6QA//ZDOn/58B6VlFUyJ/ZRnnh9E55CWKKUoLaugpKgCN09n3N2cr+tnmk1lKNLTjh49yuuvv0702Md47q0kissq67SL6NTRh78/O5Cv/7uf737OYv6zA5nx3o9s3nGUCxXd0dHAoleG0q6FJ9OmPE1U1AD69u1LVlYWaWlpPPzww3h5XbhjK1GXDEV6ER5e/C3hMz9l9MKVqF/1EGytVoxeuJJesz7liQ/XNWi76mQKrA6Hz1vDF23hE0/I/Jg6vRAX7IA1EfB5K1geDJ/5wC9Pocx5Z5Y5tAQ+8YD0hXW2rwEd/Lz5y8hbOJB7kvLKqgbuubAnbm7O9OoVyIyXRzCov+3Z94miUu4dvoDlX/zCi1OiLzqBFxeXM2v6CsY/0ZfjJ0sY0v11evZsR+eaoUY1TcPdTce/pRce7vp1ncCbIn9/f7y8vDiVl0G3ED/OrjQo4IZWJlRJIa4nk5kxrhPBLb15+oFeDIxsh8N58okGBAc1w1U34uelExnZh+LiYpI2JeHs7MSOHTv497//fTV2T5zluridXlphwdpjlfcAACAASURBVBHIKSijqLQCk9uZ5zeFZeUczi/FgEZpA1qAK0sZ2trbbDXwPn+HZt3g5A4o+AUV+ACaBqp0D9qaPuDgAZH/sNXUUxfCnoVoJzbD4E1gMNr+OjTtnFahtTQY3F1GmLoe9OvbkeSdh0g4eILy8ioC/LyY8/Y9dAhuWJ/Uf3t5Jc2DTEx7ail+gV68/PYoBgwOvUKlFtcag8HAgNsG8MXSL7hn7BPsPpDPyULbrfK+PVtzT98A/jTpj+Tk5ODl6cGRUp2kHYe569ZOrPvlEFrFuZm82qC4b1AoiVuzeOWdH+ka1IlmzXSc25jofGMbDIYEut9009Xe1etek0/iCltHBX7uOnklZuav28r0kbfUzv85I4dqpXAwaBwvLEOpatAM9T+vronrak1hOLYSqoohbAZ0fAbQwMfWgEgDqK5EW3MnWMxwZxJ42543qtb3oH03GI79F7ISIOih3x4+COkI6XoR1qMdYT3aXdI28vNLcPfRGXJDIEOHdcPdXRodXY/6RPRh1epVWE9mcNdtwXy2Jo2AFu48PrQTB3ZuYtz4h/Ft1Y5i5cmM+CRu6d6K5h6uGB0csHDuEKWa0vAxudLSzwMfkwu6kxEPR2htUrw45VkMBgN9IiIaZV+vZ00+iVut1ZSZq3iwbyhLftrDurTDvDDMgrPRtutfJh/A3dmB5u6uHC4ooapakV98iilLN3LrDS2ZeNtNtQMJzFiZROaxYhY+NBCXqgJAg4r8+j+4YBuUZ4F/JJi61U7WNAdoNxKObYA979iSeA3pdvj6oZRi1ertDBtaf2OyzT8doHefDg3e7p7Uo0wc+g4bM//6m8t+++VO5jzzNQBGTwdujGrHvQ/04eabg2qX+eazbcx9bhWak8atMV14ZsodeHrKRYE9cNFdeOyxx3juueeY+GQsvZ8fRHs/d/4xdyb33juG5q1D+PT7PZw4eZQJd93EwJt8qKjWMFrg3B7XwWrUaO6h8+2yxZSWlFJWXsaB9P0cO5bH2LFjefzxx2U88UbQ5JO42WKhCvBycaJ3+xb8mJ5LcVkFvp5Gjp8q48cDObw3fiDzN2zHWqAorajC5KaTnX+K93NTeSCyK65OtsP0/b4juDka0R2NVLe8F4NxCuz5F8rJhNYxFpx9z3xwWZbt3xsehV+/HhZ4D2x+BipP1J0uGfy6oRS8PysRdxdnbouq++538i8HiZvxDb1XT2rwdtsG+vCHqYMvatmikhLueqYXA24PoSC/lNStWfzlqc/pfWswr8wZDUBhSQmP/i2K0NBWLPvwJx4Z9k8+3/AMDg7XRXMa+6bBDcE38NRTT/H+++9TZanCv4U/1VYrc9+Yx4CoKIKataC9L5Qdz+DFyauJfWHmOaer05yVhrenzu5du3jsscfQAE8vL/x8/WjdpjVOTk71r3gZKaWoRuFwTiEV1TUt8A2G6ys2m3wSLy2vRCmF0dHAoK5BJO45yldb9zNxQHe+33cYV6MjPdr5oxt3A5B57CRhgQF09PXip8w80nNP0q2tH2aLhfxSM3fe3BlN09CcmkG/D+B/j6FtfxV2zYHbv4PmvcDgWFtDV86tzsnNymiydW1YXbeh2gWGABZNTHW14lRZGUve/F+dJG61VvP2zDXkHi+qnaaU4sD+PJa8n8TR3ELuve9mQrq2oqigjJZtvPl5UwbZh/LJzj7JtL+OILiLf+26eceK+XblDhL/m8at/TrR//YQUrce5o67bXeHfFt40u2mNgDcGtWZh5+KYsyAv/PjD/vo278jAAGtvAkLa4t3M1fu6vE3KistuLhc+RO2uHQORgcGDRrEDTfcQEZGBh06dMDX15e9e/eSdTCLo0ePUllVSVBQICdPnsRqsWA9T2XCQdPAWoHJy4tBgwadM18pdcUaSFot1aRkHGNz6hHMlRZMHjr9b2xDh1belJZXsmVfDtsP5GG1Ktr6etDvxrb4NXPll725hAT61Ha01RQ1+UuWwrIKUNW4GY30CvQDTfH5z/uoslrZdjCPts3dcXZywLkm9lIO5dmGBY2wJeuvUtIB2JWVh9UCHVuc1T9w6zGokZnQ7QWoKodv+8O621HV5dTekFL1tSjXamrdWu2v4vpSXV2NT1Azql2ryTp45o5MwclSKqqttGnvVzvtu3W7uXfAPG4feiNTZ4wgJ7uQeyLeZt3yHeQeKeIPd/+LE7mnmPjkAAwGjfcXfg9ASYmZ0f3fxKg7MPuNe2jVthkjur/BC/ctodxcWW+5XHRHHv3Drbz3jw11plurFbP+/BV9hnXB2dnxChwRcaVomkZQUBADBw4kMDAQNzc3wsPDGXn3SJ548gmefvppRtw1Ejc3NzQD1HtHXClQBo5kZeDi6oqmaSQkJBD3jzj+8Y84XnvtNXZs33FR7XuUUg1+pSr9aAHLvt/D8D7BPDLkJm4K9uPDNTspNVfx3qptHD1ewv0DuvDIHd3w8/Fg3uc/k5FbxM+pRygpq/jtD7BjTT6JF5VXABqORgeae7jSwkMnp8TM1swcVu7IZFBIGzQ0vHXbldrxms4OokLa0cLThR2HT6CUYs2uTFCK0FZ139XWnL2h22y4KxmMnnB8I9rOmeBg641NO5V6bqGsJ23/Orrb/pUa+HWn2qpo17Y5o8f1ZtI9H1BZYaGqysqUJ5bw6B/64+/nTn5+CVZrNf+cvY73vv4jkX2DadOmGWMfjqDX4Pa123J1deHJZwcS0LLu+7mvzfgPYydGct+4CAICTAwa0pU5/x73m7WlwK4tyNieW/v7e3PW82TMIlKSDuBmcTzvBYCwL5qm4eDgYHuOrSlcXV1xczaiO9R3g1bDx9eZ7SkpBAYGApCUlMSw4cMYO/Ze7r//fr5Z8w0KVZuk6/upqKjgiy++oKKi4oLLnf2DgpMlZjxcnGnj54m3u05Y+xYM7BnIj7sP4+BgYPStnfFv5k5zL1f6hrZiaGR71mzKoKq6usnXkZr87fRicyUKhaPBAaPBwJ+je/F/n/7I31b/gqpWRHe3nQwDvG2dtJyqruk3WNMIbmHil8xjFJaZ+XZ3NqEB3rT3PU9HBqYwiHwLfngYSjLAf4BtetpiVMfJaNqZQ60dWAKahmoW3uQDTNQvKyufDsG+3B7dlb+/uJq9aTlg0MjYncstt3Uk9ZfDbPxhL4MGd8XqCD16BNauazQaeHr6EP7zwS8AtAzxqff29oYPd/HOd4/V6UyrS1hrHIwXvnYvOF6Cd2uP2t8nPj+QqNs6U1ZWyeMPxLPs482M/4MMO9mkKPD09MRNN+LsYoSiurM1BX17tiN9x3JG3W3r/lcpRfPmzXF1daW8vJzq6moOHDjA+vXrqa6upkePHnTs2JEvv/wSi6UKT08vOnbsyJo1a9B1HWdnZ9LT0/H29sbDw4MWfi1IT9+P0dGRli1bsnfvHpycnImKiqJTm2Z89cM+3lr2M12D/Gjn50lYez/WJh8kvIN/nU66jA4O9OzUkv8mH8LpOmi70eSTeJm5Eg1wrPkyewYG4OroQMbxU9zUxoe2zW1JuWVzW81ZWVVtK/F+wf5s2n+Uxd9vp9hcxVMDb8DBYLvXpJQVrdoMDm7UrAjHfrSt6eyH8g5DM7jAqf1ox38Ev1sBzfZ++aEvwKDbXk87i9Lkzvr14ru1uwnw8cLR0YE5H8fw9uw1uLk7M3vR/bi5OdO8lQfff5dG9LDumIsqKTdX4qKfSdRbNmfU/t/Zqf4/4xbdm5GXWww3npl2qqgcVX3+Wz9KKVYu38rdD/Y6Z56rqxMxj0SyYW09d5eEXdMMBry9vbFWlKE7nxtP1ZpiaGQH3v72KO3b2yo+VquVDz74ACcnJ5RS9OvXj7lz5/Laa69hNBr59JNPKSoqws3NjREjRvDLL7/QrFkzunXrRru2bdm5axePPvooBQUFvPPOO3Tu3JnQ0FAcnZxYt24dTz75JEePHOH777/nvvvuY/rDfcnOK+RgbiHrtx3kUN4pggK8aOPjcU55jQYDStNQ547l0uQ0+SReUmHrbvD0BZm7ixPOLkbKqqz0aOtXmzRbebmhKQ2rOtPhy909O/HWd9v5cMt+qqsV/c4ad1nLioekP0G7EdCyL+xeBIU7wcELur1ia/gWsQD+9xh8dwe0uBV8uqLtWQxVp1A3vQoubeqUVds2E9L+dWbCnf+Fn58A7xBw8oWWd4F7w187EteexNW7ePq5OwDo0q01eemFaC4QEWnr1Kd5Cw9SNx7GwaBx+/AuPP/IJ8xYOAYvL1dSdx3hredWcf+jF34n96WZw5k95SvatfehQwc/8o4V8/ara7BazpzZTuaXcCj7JFWVFk4Vm/lk0Y/kpBfxxoLI2mVyjxSQfuAYx4+d4u2/rOKZv0RfgSMiGpuXlxdfrfiSYf1G8M7hFCxWW7seTSm6h/rTxtsRq9WKr6/tLRwHBwfGjBmDq6urrUW4ggQSartd7dS5E82aNcNisbBixQqKCgtp3rw5RqMRa7WVZs2a4eJiuwPq6emJs7MzHTp0YP/+/eTl5fG///0Pi8WCu7s7W9NzcHE00jXIj05tfDBXWXh35Ta277c97rw5pBUODrazuVKKfYfzbXcVmv4T46afxF2dHQlr44Onq+2Zt9FgILZ/V1ZtP8jA0DNJ1M/TnbA2zWnjdWZkMRdHI2293dmXV8zdPdrjb3I7s+FW90LPEsj4HLZsAGdPCH4AdWNNAgcIfAh0H0h9C/K3wYlk8AyG/BS0nG+hZX9ofgvovuDfD1s9/HQtSbP1o97lz3ByK8qjPZpD021heT2pslhxsGj41zzDdnR04Pm3RnAyvwSHmtdj2rRrjp+fBxaLlWeev5OZU79kzG1v4eTlhBtGXv7XaAqyTuGsG2nXvu744i3b2hpf9uwVxH1PRPLEqPdwNDlDqZUhMeGcOHgKB4MBL29X3nsjkf/EbwEDOLkY6DmgI4u+fhwnJ9sdJ69mbvz9lVV8wAacXAzc+9gt3BHdDdH0DBw4kOnTp7PggfHk5XdmW2oORt3Ird1bERHszrTnJzNu3DjcavqXNxqNmEwm3Nxs50Wr1YqPjw9paWk4Ojryyy+/0K1bNxwcHOjZsyebN28mJ+dozbvkGkeOHGHfvn0cO3aMw4cPc8MNN4Cm4efXgoCAAAIDAzlx4gQ5OTlghS827sF7hAte7jql5ZWYLVZG9Q9m447DfLs1gz4hrTA6GMjOK+KDNTsZOyCETTsOk5NfgvX0i+8aeLk54+HadM6l18UAKBdL1fycvnYrM1cybP4KqqoVa/7vbtzqbZVra3xhO4VqKE0795UyAFVNNQoDBrRDS2H336CqBEbspaneRJcBUM7Paq3GYDDUPq8+fZjO/r26urr2fWyloKrKgtVSjZOzEYNBQynbMT57ObCtd/a7slVVVqoqrTg5OeBgdKhdXillG1e6hsFw7ju2Zy+jaTTZ98Ob2gAov4fVauX111/n008/ZcJjjxHeqw/5J07w4w+J/Lx5M+PHP8SDDz6Ac82wo7t376ZTp04YjWfqgsXFxezYvgOFon1Qe3x9fdixcyfl5eW4urrSpUsXjh07Rn5+PlarFV3XcXR05LvvvuOee+6hefPmGAwGjhw+wsGDB9FddDp16oiLqwcbUg6SvC+XEksVro5GurVvwZ29gig4ZWZt8kEOZJ+kSlXj7upEUUkFwS2b4e7sQE5BGY4OtvOywWCgd2gruneo2598Y7rUeJEkXo/th46x60g+K5LTOVRQyt/GRDCgczsu65duLYfiXeB97rPHpkKSuLAXksRtSktL+f7779myZQtlZWW4e7jToX0HevToQfv27XF0/O3XC6trGgefviBUSqGqFZpBq71jVF5ezpo1a3Bzc8NsNtPCz4/evXvXXsWebpmuaWfWsVbbet+0WKtxcNBwdXbEWPM+XGWVhfLKKqqrbXe2rNZqisrM+Hm5Ua3q9oVpdDDgZLx2epaTJH4FfPZTKm+u205Lkytvju1PkJ/3b68kziFJXNgLSeJ1WSwWLBYLRqOxTk37ciotLeVU8SmMjka8vb2vQJet9tGRtSTxK6TCYsXRwYBBhmj83SSJC3shSVw0lkuNlybfsO33cr6GbrcIIYQQ9WmarVSEEEKI64AkcSGEEMJOSRIXQggh7JQkcSGEEMJOSRIXQggh7JQkcSGEEMJOSRIXQggh7JQkcSGEEMJOSRIXQggh7JQkcSGEEMJONbjbVU36Ehd24vQ4x0JcbXKeFFdLgwZAEUIIIcS1Q26nCyGEEHZKkrgQQghhpySJCyGEEHZKkrgQQghhpySJCyGEEHZKkrgQQghhpySJCyGEEHZKkrgQQghhpySJCyGEEHZKkrgQQghhpySJCyGEEHZKkrgQQghhpySJCyGEEHZKkrgQQghhpySJCyGEEHZKkrgQQghhpySJCyGEEHZKkrgQQghhp+w6iWf+PRIXTUPTNDRHF7zbhDLw0VmsPnh6iUKWjHKxzT/94+JN+4hxzNpQWO82l493QfMex3LLpZSskE3vz2P5nkvZhmhKJFZFY5HYa9qMjV2AS6cT8eRMRgeZKUhLZMkn0xi6IZmEjcuIaX16kTAmvBlLhA6cSCF+zgKmxbgQtn8R0e51txb59DKW3RNA5KUcmRPLmPvsNPTFkxnV+RK2I5oYiVXRWCT2mixlxzLejFC60V9NWHtmWs6SGOVvRAX9X5JSqkAl3K0r3EephFNnlln1iEmhR6m5meduc9mDusIUo5ZVKZWzMErpeoSa+tFcNaqrSenuQSrquVWq4PTnL5+sorv6K13XlSkwQk1YmKzKM+NUlI4C20/Ii8lKlaeqhCejVJCPrnR3fxX2YJxKPqWUUuVq2T26IjhWLVo8QYX560r3j1Cxn2fUfEKBSpoTo8ICTUp3N6mQIZPVqtNlLkhWcY9EqCCTrnT/MDVqTlJtucS1R2JVYrWxSOw17dhrcklcVa1Xsa1Res+ZKvV0cOrRKm5/jsrJyVE5O5ep2K4ovetklVR17jbrBOe70Uo36sp/wGSVsHaZmjrIpDCGqakpSqlTq1SMDyro/ji1fkuSWvZilPJvHa3i0gtU6vxRyoSuouckqdSccpUxP0rpRn81amGSSlo4SvkbdRXxZsaZz9NNKmziIrVq9Vw1KhBFYKxaX6VUwecxyt+oq7CnEtT6r2eq6NYo06A4laHK1fongxR6mJq8PFklLYxRQXqQil1bflWOu2g4iVWJ1cYisde0Y68JJvFkNbM7iuDJKqmqJjih7o8pTMUuz6l3m+cEJyYVs9z2pZcvGaV0dNvvp5apGB+UqecENXfJepWac1ZgrJ6gTOgqZnnN76cKVEFBuSpXSqmCRSpaR/k/uf7M5+nRalFNcdY/6V/ze7ladr/J9v/jtnk5KevVqrXJKuf0H+CAOJWhlFJV69XkwDPbFNceiVWJ1cYisde0Y8+uG7bVy5JDZi7oPgGYTj+v0SOYunw969euZ9XXCcwdbiY+JpLHVtbfaKMOozcBvrptMyZvdAAL4D6KmfNjCS9cxpSYgYS2CSD03nmklJy7icJd8cQOCiXAwwWXgEmsNv/6M0x4+9j+6+LuDZgxWwrJOWEGPYAAk22ef/coogeF4W8pJKcQzBunEOrhgov3UBYchsKDmVzEHolrhcSqaCwSe01Gk0viuV/Es+oEBPWLJOT0RGMAoYOiiBoURfTwGCa/NI4wMln1TfIlfVbQ/XGs319Awf4klr0YTsGX05j55a/DI5P456ax5EQU8ZnllGfHEa3/apF6G4eY8DYB5hxyajaZuSGeBe+tJhMTASbQ+00jMSWV1JRUUtMySF08DtMl7ZG4miRWRWOR2Gs67L91uqWQ1C/nMW8XFOxPZMnHq8ltHcOCZyPg9PWWJZPEj+Mp123Lp30ZzyazTtSNQb//c/fMY2C/mTAxnpn3BmEK8McFHd1dB6OObjSTsm4JiR2DMZvNYCmnIH0TS5YsIVmHwvQUUk5EXeADdKLvjsb/y9UsmB5PwJBC4p+ewuqgOKInTiB6SBALPlnFsi1RjHZPZO7sVXj/MYFFD17CPokrS2JVYrWxSOw13dhr7Pv5lyLjzQiln/UMR/cPUREPzlSr9p9+7lLPsx6jrYXkqJdXqYyLarARpCZvrJl5+hnO5+VKqQKVND9GRQSblG5E6a3D1KiXV6mcKqVUwXo1uY9J6bpJhc1IVjmfx6oIf1vryJj5SWr9jAhlcjepqPkZdT5PKaWSngtR6FEqLttW/vWzR6mw1rbWmiHDp6pV2ad3LUnNvT9M+bvrSjcFqYiJi2pacoprkcSqxGpjkdhr2rGnKaVUI1w7CCGEEOISNbln4kIIIcT1QpK4EEIIYackiQshhBB2SpK4EEIIYackiQshhBB2SpK4EEIIYackiQshhBB2SpK4EEIIYackiQshhBB2SpK4EEIIYackiQshhBB2SpK4EEIIYackiQshhBB2SpK4EEIIYackiQshhBB2SpK4EEIIYackiQshhBB2SpK4EEIIYackiQshhBB2SpK4EEIIYackiQshhBB2SpK4EEIIYackiQshhBB2SpK4EEIIYackiQshhBB2SpK4EEIIYackiQshhBB2SpK4EEIIYackiQtxvftxCu0dNVx6zSKtscsihGgQSeLiulC4LZ5J0eEEeLvg4h1AePQk4rcVNnaxflPKq+G4tJlEoqWxS/IbCpcw1EVD087z4zKU+BONXUghmh5jYxdAiCsufQGjB00i8YSOf89IIkkl6ZsFPLYlE/OmVcQGN3YBz8OSxuqvUzAT2dgl+W3GIKLuj8FkAcyZJH65iVz8ibg7iiAdMIbb/hVCXF5KiCatXK1/KkgBynT3IpWjlFIqRy2626QAFfTUelWulMp4M0LpoIKeWqZWzRilQvx1pfuHqZg3k1TB2VtLSVCT745QQT660t39VcigWLVoy5klUmdHKB1dhc1er9bPHqXCWutKNwWpiCcTVEbVme1kfD1TxfQNUv7uusLdpIL6xKiZX2ecWWB5jNJB8asffVBczT7YFCTOVTF9Q5TJXVe6yV+FDZ+qlmX+6gikLVOT7w5TQaYzZY47q8xq42QVZETpPWeqVKWUKk9VcUP8FUZ/Fb0wVZU39JDnLFLROgo9Wi3K+dW8qvUqtjUK92i1KG29mnlPmPJ3R4GuohaeWbhgY5yaMChE+bvXlLlvjJq5umZ+9iIV7V6zjbO3nx2notxRmEaphOM1+/4b35cQ9k6SuGjaqpLVzO62JDFqyZl0VL5klC1Jdp+pUquUylkYpXRQun+Qinhwppo7I0aFuKMwBqnYtTXr7Y9T0T4ofCJU7PwEtWzxVDUqWFf4R6tFmbZFTl8MmIJDVMT9U1Xc/Mkqyh8FJjVqSUHtdqLcUXrwKDV14SKV8O5MNaqzrtDD1MyUmgJmJ6mENyeoECMKU5SavDhBJXyUoBLWnpVUsxfZyuMepibMT1BxT0UoU02ir70cyFmmYgJt+xH9f3PV3JdjVJgJhU+Uittfs8zZSbwqR62aGKJ0o0lFvJzU8ASu1IWTuMpQcQN0hdFfhXX3V7p/mBo1MVbFPjlBzVxbc3xSZqoIdxTuISrm5bkqbkZNmfUQNXljuVKqQCXcbVKgq+h3z3xAxnzbd+j/4DLbhddFfF9C2DtJ4qJpq1qvYv1tSWzyxrOm1yQu/GPV+rOSOF2nquSaGnPS/9lq8P4TV6lypVTScyEKUGEvJ6vy8nJVXl6uCpbEKFPNNKXOJHF6zjxnO0HPJdkmJMYqfyNKHzBTJZ2uMWYnq+SdGSrn7KyZHaeidBStbWU8R/Z6lbB4kVr0dbItaR2vSZ7uMWpZzXZqLyruSai9o5C6OFZNeHCCmvl1Tp1jofecqhJmRymTUVchE5epc/LvxbpgEi9XCffotjsLrUfVk0zL1aqJ/gpQIS8m1U5Nftl27P0fsX0XBZ/HKJMRpQ85fXclQ80doNe56LqY70sIeycN24Q4iykskpCaliIhN4agA4UHMymkkNRdmUBNYzMXF1xcXPCOWUIhkLYtjcI62wkjrGY7pgB/dKDcXG6b0GsU47rqmDdMIzLAhYAbBzJuzmrSzN74N+S5sU8Aetpq4p+NJsjbG5egSaw2A5hrF0lLScOMTlBYGKaaaSGPxLHoo0VMHe5fZ3PmPfOYMD2RQkyEDYmi7tzLRz99fO+fwoTAX8/NIS2tENAJuTGsdmpISM13sT+NHMA0ZByjfcC8cTmrcoH05SzbZIbgUYwboEMDvy8h7JU0bBNNXAABrYHcHDKzC6EmlRVmZ5JjAVoHEHD24kY4bx41AuhEvLiMeXd515mlm0IwAQWnfzee2co523OPYu7GVKK/WMLqDUkkbUli9T8SWf5eAklfJxM3qGaN32iRnvb3cYx7IwV90EwSvoghhOU8FjGFxNolzGel84tgNhF5fyQ5XyxnyUvTmDAojij3hmygIXSCQkJ+/+ruUcTcE0T8PxJZvjKXqJJlpJghLGYcEafPahfxfQlh76QmLpo2YxAREUGAmcQvlpELQC7LvkjEDARFRBB01qVsYUoSKTXJM21nGmbA1DoIEyZCu9q2k5kLYX0iiOgTQURrnfJy0N0bUIUuzCRlWyYBw6cy96NVJKXlkPpmFLo5jdXfpJxV9pp/zfUlYzMpW2y17PDhMUR3DyLIUmC7MAHMFgC9pgZrJjMlpbbmmfbPcQyMGsi49+q+Fa53n0Tc4njmPhgEe+KZMntTwy4CGkivtwoRQFiICTCTtvNM+Wq/i5CwmosunaiYUYQYzSR9E0/8yhTMesT/t2+HoG1EcRzH3yDiiYgnKk5M7GBigYjEJTDTjIoczMT1xkSJ2sJECVNhLlSUU+XIzFFxcLJzjcvMoHWrCEzGRHQwEVExMfGduHfJ0qVtxjayY/+PvAu5dzzx597/91fPdrOv9z+4X0L8yzZ9ni/EX5cFnJTGrXl4NTfthv6tnwAAAaJJREFUW295RDbcNQ+2GZf6XkB42E7DVEvBNhskK7h4r0OiQR+/rFHapTNMO85ZD9p5MZo/fnJor71Kr13GLZyCwtnuEh4nJHFIt+miCoZW/EMT+esp7fsKVXBo7AdEg4D+m4izq/R21ms3212iOMCvVSk9VKhCCf9oxOQKmCa0nGzNAeGBfS/TIBjb51xPp08jWlsKVazTH/Pr7uiJn+zqNGgY35ASz4Jtpop/EC6CbcX6IvgH8O0jvYpCFc21/ri1xn4JkXdSxMV/YXYR0WlW5yNL1WaH6GKRIsuKuHkekuw30nGslSNmEZ2nVRxjR8Me+/SHi9GwdYo4zDg7atMoOxitUNrgVDw6g+VnAVwOe3gVB63TYuWU25x8yW6O6DVLGK0xjxp0302YxD4lo9EPfJKpXfM4oWvXPB8xO79lxAz4ZNdsdsKl0bi1/G4RZ8WI2U6b8MPPv09H+mz6f8X/3bVfQuTdPYBNnwYIsWmf3z5R7sv3Su+dqtmxt+nlCCHEWqQnLoQQQuSUFHEhhBAip+Q4XQghhMgp+RIXQgghcuo7n3NHyYCLWMQAAAAASUVORK5CYII=;base64,iVBORw0KGgoAAAANSUhEUgAAAIoAAABNCAYAAAB5avxoAAAABHNCSVQICAgIfAhkiAAAABl0RVh0U29mdHdhcmUAZ25vbWUtc2NyZWVuc2hvdO8Dvz4AAABAaVRYdENyZWF0aW9uIFRpbWUAAAAAAFRo4bupIHPDoXUsIDE1IFRow6FuZyA5IE7Eg20gMjAyMyAxNzo1NDoyNyArMDdKWqPpAAASxUlEQVR4nO2df1BU193Gn3t3Fy4Ieom/LmICa6HjAjZs4zuA5U0LjTaS8bWhQ0dx8s6UVSdKTKvotJbkbZPS9J28vE4khDiGmkwmy5uYwUxUyIiCSU3NNESY1kQlGiQpZTXYrBmURXb3Pu8fu3tlYZGNpsGF+5m5M3DPOfd+z7nPPed7zj3nrECS0NEZB3GiDdCJDHSh6ISFLhSdsNCFohMWulB0wkIXik5Y6ELRCYspIxSSIAm32z0qzOv1auE6oZn0QlFVFb29vTh48CCWLVuGpKQkDAwMaOFOpxNJSUm499578eabb6Knpwder3cCLb5N4STF7Xazvr6eiqJQEAQKgkAAFASBhw4doqqqJMlDhw4FhQmCwKSkJL700kv0eDwTnIvbh0kplI6ODsqyrAng3nvvZUNDA48dO0ZBEGi1Wun1eun1ellaWkpJkvjRRx/x4MGDXLp0qSaYuLg4dnR0THR2bgsmpVB6e3tpNBo5Z84cdnV10ev1kvTVMmlpaRRFkRaLhRkZGYyNjeVdd93FoaEhLX1PTw9TU1MpCALPnj07Udm4rZiUPoqiKFi2bBkGBgYwc+ZMiKIvm0ajETt37kRGRgZmzJiB+Ph4pKWlYdu2bTCZTFp6QRBw7tw5zJ8/HykpKROUi9uMiVbqraKqKnfu3MlFixbx7NmzVFWVLpeLv/nNbwiAhw4dCpkm1N8BDh06RABcu3YtBwYG6PF4eO7cOebm5vKJJ54Iqn2mChEvlJaWFgqCQFEUaTAY+NprrzE/P5+CIDAmJobnz58flUZV1VHHcD766COaTCYC4N13382XX36ZBoNB811aWlq+odzdPkS0UK5cuUKz2czp06ezubmZ8fHxmmhWr17Nvr4+kj5heL1enjhxgps2beI999xDi8VCi8VCq9XK0tJSvv322/R4PJponE4nH3nkEU0gd9xxB/ft28eYmBjKsszu7u6JzPo3TsQKxev1cuXKlRRFkc888wxVVWVvby/Xr1/PZ555RnvoXq+XO3bsYEZGBkVRpCAINBqNVBSFiYmJjIqK0mqKtLQ0PvXUU3S5XCR9Atu1axdLS0t55swZqqrKvXv30mQycfny5VOq+xyRQlFVlS+88AINBgOLi4u1Xs3IpqSzs5P33HMPRVHknXfeyU2bNvGdd96hy+XS4rlcLh4/fpxbtmxhcnIyRVHkd77zHa3JGnlNVVW5atUqGgwGHjhwYELyPxFEpFD++c9/MjY2lqIo8vTp0yHjtLW10WQy0WQy8eGHH+bVq1c1QYXC6/XS7XazvLycsiyzurp6zLhDQ0OsqanhwMDALeclUohIobhcLmZkZBAA586dy48//jgo/JNPPtFE0tbWdkOBjCQwEBeqNzSVEcjI/BLmdrvx/PPPY+vWrYiJiYHD4UBsbCxUVUVeXh4++OADNDY24r777oMgCEFpXS4XfvWrXyE7OxurVq3SxlmG8+6776K2thaqqmrnoqKiMHfuXOTl5eH+++9HdHQ0AN/3pMrKSmRmZuLHP/5xyOtFPBOt1FtBVVWmp6czJSVFqwWqq6spCAI3bNgQ0tn0eDzMzs6mIAg0GAw8cuTIqDher5czZswggDGPtLQ0bXj/yy+/pCiKTE5OnrQ1UUTWKAGTT548iaysLJSWlqKurg6qqiIjIwNffPEFPv74Y8yYMWNU2osXLyI5ORkejwckUVhYiP379wfVOl6vFzExMfB4PNi4cSMWLFgAURTh9Xrx+eef49VXX8Vnn32GJUuW4M9//jMuXbqE2bNnQ1EU9Pb2jqrBJgUTq9OvhtfrZXl5OefOncs5c+Zob31TUxNJ8h//+AcNBgO3bt065ptdW1tLQRD485//nNOnT+eMGTN49erVoDgej0cbcPvTn/406hodHR00GAyMjo7mtWvX2NfXRwBUFGXS1igRJRRVVblgwQIC0MZE5s2bpw2p//rXv6YgCGxubg6ZfnBwkNOmTaMgCDxx4gRXrVpFQRC4ffv2IId3PKF4PB4mJCQQAD/77LMpIZSI9LoURcHly5cxMDCATz/9FCaTCSRx8OBBAEBGRkbIdO+//z6uXr2KuLg4pKenY/Xq1QCAF198EUNDQ2Pej/7ZbyShqiqOHTuGy5cvY9q0aUhMTPz6M3gbYpxoA26W6OhoREVFaf+rqoqenh4IgoBZs2aNik8SdrsdgiDgiSeegCRJ2ow3h8OBDz/8EIsXLw5KIwgC9uzZgyNHjkAQBLjdbvT09ODAgQMAgPz8fBiNEVuEX40Jrc++IoGmR1EUXrt2LSjM7XYzISGBoiiOCiPJzz//nLGxsYyKiuL777/Pzs5OdnZ2csOGDQTA7OxsrZcUaHoCE59GHqIo8v777+fFixdJcko0PRH7Oly7dg2qqsJkMsFgMMBgMCAhIQFffvklLl26hHnz5gXFf/311zEwMABRFJGdnQ3AV2OQhCAIaGtrwyeffIJvf/vbQemKi4sxa9YsqKqKmJgYpKSkYOXKlbjrrrsm53jJWEy0Ur8KoZzZpKQkzZldv349BUHg4cOHR6X9wQ9+oI3kJicnBx2xsbEEwD/84Q8kx3dmRzIVapSIEorX6+WWLVs4e/Zszpw5k/Hx8QTAxsZGkr55JKIosry8POiBdXZ20mQyMSEhIeiDYODr8oEDBygIAmVZZn9/vy6UEESUUAIEHvJf//pXCoLA0tJSkj4hfetb3+KcOXPodDq1+GvXriUA/uhHPwp5vS+++ILTpk0jANrtdl0oIYjIRlYQBAiCgEWLFsFisaC1tVX7JrNu3Tr09fVh+/bt2rm2tjYAwEMPPRTyerIsY8mSJQB833gEQYAkSRAEAQaDYVx7TCYTRFFEdHT05F1ENtFKvVmGhoa4c+dOmkwmxsfHa6OrXq+X2dnZjIqKYnNzM1VV5cGDB/nYY4/d8G13Op18+OGHeebMGZLk0aNH+Ytf/CKsqQQej4e//e1vuW/fvq/0pTqSiEihDA4O0mKxEADnzJnDzs7OoPDu7m5GR0czKiqKJ06c+Eoz0QJ+y2RtQm6WiGx6rl69ik8//RSiKOKdd94Z1aVNTk7GX/7yF4iiiJycHDz66KNwuVw3bBZIwuPxYNu2bZg5cyZqamrGjDs0NIRnn30Wg4ODX1uebnsmWqk3g6qqfP7558edCtnV1cXvfe97QVMh33777TGnQqakpFAQhHGnQq5Zs4aiKPLNN9+ckPxPBBEpFNL3wFasWBE0udrhcNBms42aXP3ss88yMzNTm0RtMBioKAoVRQmaXL1gwQL+7ne/CxLSrl27aLPZ2NnZSVVV+frrr+uTqyON/v5+pqSkcPr06Tx8+HDQco01a9aMWq7R1tbG9evX8+6772ZaWhrT0tK4aNEiFhcXs6mpiW63W/NPnE4nN27cSFEUKYoi77jjDr7xxhuMjY3Vl2tEIiMXgL366qtBC8C6urqC4oda/DXScT158qQ2jpKVlcVXXnlFE4y+ACxCCSwpTU9P15qH8ZaUjsfIJaVer5dnz55lTk7OlF1SGpFTIceDJFauXImjR4+it7cX8fHxWtiRI0fwy1/+EtOmTQNJXLlyBaWlpdi0aZMWx+FwYN68eUhKSkJ3d/fUmUpwIyZWp/8aLl68yKioqFHbXng8Hi5atEjb9iI9PZ2xsbG88847R217kZaWRkEQRo3RTFUmpVACG+nAP3/k+9//PhsaGvjuu+9SEARmZWVpvonNZqMkSTx16lTQRjoAGB8fr2+k42dSCoX01R6vvfYaExMTtW23AsJ56623brg1l6Io3LVr15Tq/o7HpPRRhqOqKi5cuIAPPvgA1dXV+Nvf/obu7m7ExsYC8G32l56ejtTUVGzZsgWLFy/GvHnzwvoYOJWY9EIJEMimx+MJ2l0J8K3jCcxWm5Rrcr4GpoxQdG6NiPwoqPPNowtFJyx0oeiEhS4UnbDQhaITFrpQdMJCF4pOWOhC0QkLXSg6YaELRScsdKHohIUuFJ2w0IWiExa6UG6Fw48g0SQg5j/3TbQl/3JuWSgXjj6HR/7ju1gwOwYxMTFIMH8XDzz6HN678HWYd5uTVoit2yvw2ArLv/Amp/H73BjfDg5pW/GeZ0TwgTVI8O/uoB3xiUgvWIPfH/Y/hEt/xAMxAoTEtWgamT5cbmV6nKO+hGYjCEhUFhewcEUBrSkSAVDKLGOLc/xr6IzDyUpajfDNATaaWdbqCg7fX0IZIObnsmh1CUtWF7Ewz0wJIOJyWdlBsq+OhRIIxcZG982ZcfNC6W+kbT4Io5lFe05RM9/tYMM6CyWjzMLdDv9JB1uetrFgoUJJkiinWFm0vYFdgUT7bZQBWjbbWbfaQlkuYYObpOsU7ZsLaZ0vU4qTac63sa7DNcqUAI7mSpbkmCnHgZKs0PpgBRuG/Xak81gVS/LMlOMkSvOtLHq8kQ5/wR3fZiEg07a7gWWLZUrL/5v/ky8RRgvL3xt2j+oCSgAt246TzWVUjKD0UIM/1MVT9eUszPLnMzWXturjvP6+uNi+u0wrByWzkOX1XRw7R2T741bCqND2VDmtRtC8oSU4vl8o0oP2oPs0rjMTAC2Pt0+wUAKFlFPJUyPDXE46NKtdbH/SSgmgklfGyuoqli/3Kd68odGXOf+15FQzLTkltG2uY7vbxZYNZsKosGBzHRvqq1iyUCJSbGwMVVM57CyaBUqZJazcbWfdDhtzZVBaXMlTbpJna1ggg9LCElbVN7BucwFlo8Tcp33Wtz/u20bDvNBK64M2llW38LRfFNYn2wM3Yd1yn3gq3uMooTj322g2+myo2FHJsjyFMMos3ONbreioL6FiBM0rKmjfa2fFcjMhWVj+3hhScbezItP/gJ3+v+fb2Ng/LE5IoZBdO3y2mze1TKxQnHsKKQGUf9Z444j9DSyZBSKukHWBCqa/kTbFf66PWoEjtYwtgUJw2lkkg0gtZ0u/iy6Xi47aQkqQWVQfQikdFb4qekUNT/mv4TjZzvazDrrofzMhsbDWQZfLRVd/C8tSQWRVsN0dCAfl4mEFfr6KBRIo5VWxiyT7/DZl+tIECyUgIjPLmv0P/nwDy39mo+3pFjrpYM1SiZCsrOzw5cfVUUmrBCobxlii+l45LUZQfqiBLvprPaNC2/5hwgohFNffW1ieI/nyu8dxmwjloXGE4m9jkVXpK1ySZBdrhlfrgQIvtl+vVgPpQuzzan28ffR93O2szPGv5ZFkmnMKaXvSzvY+knSxYbUU+pcy4opo778upILq4WuVu1iVLxFSAWv+Trr2+h6KZbv//sOF4m5hWQp8cR2jzdPCQ9ggLa1hqCTHN5sJyCzZ65fACOGQvO6jhDjkvEq2u/i1COWm10rKKRYkGptw/mQHTnsKYRl+pUsdaOqQsCTfAnmM9CG3oJEkSCPPLSyD/cU1MF+PBGl+iF6G0YqKw+3I/b967DvcitZjrfjjfzXBvrcdjW2VWtrCp1rxWP7wdDIsEnBeMyFmWKAZRSuW4LGjx9F0+DzMx1px2WhF2U+tY+TKz416FlIuKvb9Lx5IGHYqzjy6nAZbYX/DZ1X9TxNQPzzsrQY0XS5C0fBEKQUo+XcFMMYgRpJh/rdClKwugFkCcOXG5obDzXePcwtRlALgwxpsfeH09QfvOY/6LT/BA8vSseTJDiDFAosM4NxxtF/yx7ncgfbTg0CcBd9dOMb151tgiQNwyQkpMxe5ObmwKoDLA8hxo+QEXLmA0x9eQOKDFajZ24JTfz8Pe7GCwTNNaD0jwZzqE5cDMnJzcpGbY4HscgFSAqQbvC7mFYWwSoM4fvg57Dt6AcgsxE8yQ0Q0psOSJgGe8zh92l8a3fVYu+yH+OHGelzQwi9gULL6bMiUAReAOHnUCzJ4bB8aegBpYSFs62zaUbRYBi41wf7W5aD4ktWG5162w76nDnW1Vaj4mV8kXxc3VxH5cDaV0RLn7x5nhege+6v99sf9zmx+Oatqq1i+1ExAomWz34Mf1XvwpWvZ4I9XXMm63ZUsyZQIuYBVIX5G0NVcRrMRVJaWs+ZlO+17Klm0UCJmldDeR82Zxaxclu2oY83mAp9juc7nUGs+zO6RjUAXq/IkQpJGOLaj7Xbs9TmrUmYJK6urWJbvd2ZrA85skS88y8aq3XWseNBMyaiw6OWR93SxcZ0S0h5Xk83n+Ad8kjGc2SAmtNfjx9lWx/LiXFoUiZLR1/Ut3FzH433DIrkdbHm6hLmpstZtLHnqetc0tFCodY8tiuT3O0pY2RqqNSe1rmemQlkCEafQstTGqmPXi8/RWuXrPkugpFhYuMnOU/7GfmyhkF07cn3jEkYrK08OCwjRPW7fc737Ky8sGNE9drK91saChbKvrFILaKs9PvoB9zewRAEhF/lEHpRNv68T6Bx8Q0LRF4DphIX+rUcnLHSh6ISFLhSdsPh/1KfAWOXrfnUAAAAASUVORK5CYII=;base64,iVBORw0KGgoAAAANSUhEUgAAAJUAAABYCAYAAAD81LUlAAAABHNCSVQICAgIfAhkiAAAABl0RVh0U29mdHdhcmUAZ25vbWUtc2NyZWVuc2hvdO8Dvz4AAABAaVRYdENyZWF0aW9uIFRpbWUAAAAAAFRo4bupIHPDoXUsIDE1IFRow6FuZyA5IE7Eg20gMjAyMyAxNzo0ODo1MiArMDffax0tAAAUTUlEQVR4nO2de3RU1b3HP/vMmeQEEpjwnAgiIw8ZBJvhYQm2tYxFayxtCYVVEnXVG2kvN9rV3mjXtcHbdWnwtjToXS3oqgtorzbYaoNXNCnVJvbWNlHRBC+YoNhEixAsykQBZzKP87t/nIQ8CMlMOkgymc9as1ayz378ztnfs89vP84+SkSEJEniiHaxDUiSeCRFlSTu6BfbgCFBMIicPoN8+BHm4WYiB5swm9/GbD0OH52CUAjRddSYMWjOSWiXT8c2z40263KUwwHpo1CpqRf7LIYMI1dUIpgn3sd87XXCr+7HrH+NSNObyIcfQT9uZqTzD6VQYzLQrpiFbeGnsC3IRs+eh5o8EZT6RE5hqKJGoqMuvjZCTz5DeG8N5uG/Yp70gWmeN76y25Fw+PxiUwo1LhNt5uXYb1iGfdVXUOMcF8j6oc/IElUkQvj5P9O+aQuR5rf7FRIAdp2UNV9FGQbtO34VXRmahjblElJL/hX7DV7QR97DYGSIyjQx3zlCcGc5oYo9yKnTA6exaejXXYtRUoz/no1Eal+OqUg1ehT6V3JJKbwF20wXaCOnT5T4t1EwaLVO27YTee3gwK1TByojA/uKL6KmZKGNyejypaJEznxM6Ne7iRxoJHX9P6Ffv2zEOPMJfftIMEjwt08T+MGPiDT8X9SCAtCck7B5rkKlpqJfe03fzrem9e+UmybmgUbaN24mtOu3SKB9EGcx/EhYUUk4QnjPXtp/9ADm0WMxp1eTJ6GNzwRA/8K1aFOyeh4fPw7b1QtRacaAeZnH/06gbCvhJ56CcKxt3vAjMUUVChF+qpJAaRniaxswuho7Bu3SqT1bHSMVsdms45MnoV937Vm/SGka+nWfw+aejUQrko9OEfjJTwn+9ikkGIz5lIYTiScq0yRc8ycCP/ov5IOTUSXRxmWS+m/fQZvhOhumRo9GdfbclEL/wrWocVbLRfpo7F+9CUaPisk08bXR/p8PENpbDZHEbbESTlTmW820b9uBvHci6jTS3o7umY+9Y/gAsAYxuw0HaFfMwjb3CuvvK+ege65CGz8OdFtM9slJH+FtOzCb3owp3XAioUQlp88QfKyCyMGmfkfFzyF9NMoxBv3qhagpTlAK7YqZPR6HKnMsmucqlGFg934O0kejzZ6BSk+P2c7wm2/R/ujjSNuHMacdDiSUqCL76gnv2QuhUEzptLlzYNQo1NQstMumocaOwXblnB5xVGoqNvds1MQJ2BYvAMDmvgJt1ozYDQ2HCf++mvBfXoo97TAgYUQlp8/Q/vB/Y554P7aEKSnon1sKNhsqIwPtEie2q67ENv2ynvGUQrvEiTZtCtq0qVbQ+ExSvvZlsMX2CATrMRj8xa7oBmKHGQkjqkj1n6xR7xgnCGzTpmBf+CkAVEoK6hIn9q/ngXHuQKUak4E2/TIYm2EFaBr2L92AvvTq2A0WsVrWvdUk2qRGQohKfG0Ef1MR0+AmADYbtqsXwsQJ1v+aQr/2GvTPX9N3/FGj0C67FGW3d4UZqaTesQ7VMaYVE6ZJ8Fe/gZO+2NMOYRJCVJHXDhJpfCPmdCojHW3xAtSoNCtA07DNc6MyMvqOb6SiXNPOGUXX5s9FX/rpQS15ibzxFuFX98ecbigz7EUl7e1EXnoV+Sh230SbkoV+5ZyePlF/E7+GgW36pecEq1GjsH1mCSrGcSsAAgEif3kpoaZwhr2oONmGeehNCIdjS6cU2uXTUZc4o0+TmoJyXXZuuE3DNsPVNTgaC6YQOXQYibWDMYQZ9qIyj79H5G9HY3bQlU1Dc12GGj06+jSadt6VBmr8uMGJSgQ5dhzzWGvsaYcow15UcrINORnddEyPdEpDTcmKeUT8vKQZgxoIBaxB0BMfxMeOIcDwF9WZM3Dm49gTKoXKiL6VGjA73QZ2fVDOuvgDmKfPxM2Wi82wFxXhCBLjCDpgPS79cXSOwxFrJH8QY04qHIbgIM5hiDL8RRWJgDmIwUMxibx7NHYH/3zZnTo96Lk8EQEzcVYtDH9RIbEPegJETMxDh+MzTSKCeeRdzON/H1x60xxUCzdUGf6iiqIulKZBSkpPf0cEs/ENzEOH//EKDQYJ1+1DfL1GxpWyyh1BLz1AIrz4oBRK05D+Wqs0g9Sb12B+7IdjrUTePYZ59DjS+h6hZ36PbZ4bMgbXcwOIvH6I8N5qUBpq8nhrKbJzMlrWZBg9iuAjv4Z+HHE10Fr3YcawF5VoGqIp6EdT0t6OuiSLtJvXYH74IXzgw3z/A8yWv2G+93ciR46eXYAXM4EAkf0HsX/tK9hmz0A5J6MyHajMsZCRQfh/nkEFg/02qKIY1EqHocqwF5Vmt3e8QdyPoxuOEPpFOfYvXY82aSJMnIDGLLjm09aj7x9pJQyDlG+stfLonY+vjeAvH0MG6Nkp3d5zknqYM/wf9qPSrN8ARN45QvBXT0Ag0BWo1MCvWUVDX3mEQgSffMby2QYizYh5vftQZtiLSo1zoDKjmB4RIbT7acK1L1/4lw5ECL/2OqEnnopqDE2NHYOaMP7C2vQJMvxFNXkS2qVTompt5N1jBB9+ZFDvAcaC+cFJgg//ksihN6PqWSrnJLRYJraHOMPep1LjM9HmzEL9+cUBWwWJRAjXvUz7D36M7XwL8eJApPZlIr+viW78zGbDNmc2atLEC2bPJ83wF5VhoH96EaHfPBndCkrTJPSHPxL6wx8vuG1RkZqCbenVqD6WLw9Xhr2oAGzZ89FmzyDy4itRxdemT0NfmH3B7AnXv4bZ8k50tsx0oV+9IDlONdRQ4xykrFmJ/+VXo5oH1Bd5SP3xDy6cQffeRzAaUWmKlPzVqPHjLpwtF4GEEBVKYbvei754IeGXXx3QORZNoVJSLpw90UzLKIUt+yrsX/piQrVSkAC9v060sRmkrLsVlTk8tkVUjrGk3JaPGtv3SxbDmcRoqTqw5SxGv+l6Qo9V9L+kJdCOGcNeC7Ei/kD/EXQb+hc+b73EmoAk3PaMkdcPEbj734kcaLzYppwX2+wZGGU/xOa56mKbckFIqJYKwDZnNvZvfQPzP36MxLDuW02bijYhdodZTrZhvv236MsZO4aU9YXY5l8Zc1nDhYQTFTYN+xevg9NnCNx3v7W5fhTYV9xAytqvxVxcqGIP7Q88FF3kjHSMu+7EvuKG+L1wMQRJPFFh7dBiX7MSTJP2+x5ATg+8ulPeOYpyTopts9dgEPPo8ehsSh9N6nfWY795dcJvg50wvb/eqI490FO/9220yZMGjB956RUi+/ZHvzTZNAk3HCBSN/BW2Gr8OFLu/CYpN69JeEFBgrZUZ0lNJWXtKrRxDgLbtve7dFhO+mjfth01NsPam6qfsSYRwXzjMMGHdlrfrzkfSmGbPZOUb30D/abro1qikwgkXO+vTyKmtW3jz39J+Jm95+/y6zq2uVeQsu5W7LnLrfXlvZBgkPBzfyT4818QOXjo/BuspaZgv3E5Kf98G9oVs6z3AkcII0NUHUgwSKjyWYKbf4Yca+13XbuaPg37l29EX5SNNn485kkfkfrXCD29F/Ot5vMXohRq4gSMu+/EvvImGCEb8ndnRImqE/P4e4Qef4pwzf9i/vXtAb+cNSBKWdsSzXChf/6z2L++MqHWR8XKiBQVYL2idfQYZsNBwq/UE35lP/JWM/KxP+osVJqBNsOFbWE2tsUebJ6r0KZeMuJeyerNyBVVJyLQHkROn0beP0nkYBORA69j/vVt6+XQDz9CgiGUXYexHR+RnDEd25VubPPnoiaOtzbmMFITbmJ4sCRFlSTujOx2OskFISmqJHEnKaokcScpqiRxJymqJHEnKaokcScpqiRxJymqJHEnKaokcScpqiRxJymqJHEnKaokcScpqiRxJymqJHEnKaokcScpqiRxJymqJHEnKaokcScpqiRxZ2SI6pUNzLUr1PwNNMTnS2xJ+qFvUYV3U5ChUKrbz65Iy7qcpWs2sOvQAJt6XWSafrKUtIm3U5UU0EWh/70UdAeeG3NxO4BwgOMNNdQ8sYm6uhbYV07+kHxfsoWqPQ0EmHuxDRm5SF+EKiQ/HUH3SOmBbuH+Wimeh4AhuQ+3WvEcCI582V5VIl6nIc711R1xm6VyY77kzHGKYRjimOoW77oyqW7tVkZH2vK6rZK/yCmG4RDXsmKpPNIq1Rtzxe00xJjglrzNteLvZkbznhLJW+ISR7ohhtMt3vXbpd4nIie2S66BQOfPkJzNzSL7SsStI2SXSHVVqeRlO8VIt8qqaOmWsa9Wtq73inuqYdmyKE9K9jR3HGyU0iWGoLuk+IWzF0TKVxsChuTt6rAw1CwV9+ZJzkyHGAZiTHBJztpSqTzS55W2iq3bKkXL3eJ0GILhEGd2rhTtrO8651CrVG/OF2/ntZyZI/mbq8XXadl9OWJgSM7GCtm+1i2OdK88sKtIXDrCnGKpDXWVVX+PWwBxra8Wv4j4D5RL8QqPuByGGOlO8awolvKmznPpp377ITZRiU+2rzA6KqtRJFQphRMQdJe457kld12RlDzSKCKtUnGLSwBxfqZISn9aJiVrPeIAMbKLpfaU9Ey7LE9K7i+VvDmGlSbbIzlrS6Xs3jxxGQhGlx3+Z4vErSPGvHwp21Uh2+/NFZeOOFeXS6u/WaofLBSPgZDuleKd5VJ5wN8lquke8WR7pfDOQsmdaZXlWFkuls6bZetyh6A7xXv3dqnYtVUKFzkEwyMl+/xRi6pxs1XB7tWlsv2Rctl+b564DcRYUiaNfV3rU5VSOBXB6ZWi+7dL+c4yKfqMZUfhHks29Rs9YoC4VpZK+ePlUrrWLYbuEO9PLcE3358jBohzplvcS/Kl6LtlUt1aK8UzEXS3lOzrrNd6KZlnhRW/ICKt5ZI/FcGRI0UPVkjFw8XidSLMLJLq3nXUo37jJiq/tD5bIl6HVUhRjd8q1ImAw2q5OjlQKh4dYUK+VHTeTqGOSsEhebt8XWl1pxTusSqk9eFcMUBwFkrlKRGRVtm6vKPSHvGJiE/KV3bk8YhP/H6/+P3NVhzDK1tbpKu1mlAolZ13aKeojJwucb5QbN3JziKpDkmP1qz+lN/K+1nrbrfuzuhEVbnOKeAQ7+Z68YWsOM0N9dJ42NejtT1LS5nkGAhzCqWipSPGiUapbWiUVp+I+Duuk+GVrYc77DpRbrUg2SVSH+oSFXOKpbZbIbV3W62SZ2O9FdDQUS/zeqZzra/suJZ+qb/Xc24d9a7fAei/9xduYMP8Tmc9jazrN1HTZuC+pYwNy4yueIabpZ/tcrDaGuppCoMxfwGezh2odTc5HgfQRtOBlq60ugu328rLOTULAzDcHtzpAE5cTutYIBCAcAuNhwNAG7tvzSQtLY20tMu547kAhBtpGOgraNOX4p3TYfJMN24dCPhoA9qammgJA/s3sSAjzcr7+m20hKHtUBMt/WTbnaWrC3Cnt1HzvQVkZmYx11vAludaCExwYPSVYGouBcuccGgHq1yZZM5ayk3fK6fRZ+BwAO820dgGBGq4Y1aHXRML2NUGvNVEU7c+k2OxF0+3QnLW5OHWoamqiiag6ekKGsLgWVOAR4empiYCQMtDN3VcyzQW/LCBc+qoV/0ORPSOOmmkTXDiWVZAwQo3PXcrT8PR5xXrRZ+9sTSMTit0MHQI6HB2e7C+LNQd5N1fxV2Lu4cZOGeer4yuOGfNPM+ZG4uKKf/ZKrK6h6W7yKKv794EzinPsbyM+oZcyp+oouaFWur2VbHt+d3seKSYyroyvL2/qqu7KdrTwNIny6l4rpa6fbXUPLqJqkd3sPvBWiqXdRrhpbSqFG/3fdN0B26Ds5YZ6UZP4WavomDeJjbsr6TqUB6BqiYwcihY7e5hguu2csq/6ep+xhhON9Da8X+U9dtpVv+HXay6r5ySedFnCODwLMCt76bhQD0NbeByAOEm6hraAAcej6ubwTGgu5g7y4CDAdrCTnKWuIAALS/WchwHmQbQub1n2G9VeJR7BTrcblw6NB1vw8jOIccAjjdQ0xTAcDow8ONIA8I+Wo5Y50GgntoDAehWlW1vN9B0JItV95RReA8QaGLT8gVseLGKmkNleBf1Kvj0cZoONcLiIkpXF1t5PHk7C9bsoOZ3dbTd4mauA+reb8WfkUPOIiB8nIbnGwlkubpuyD6vl4e8NR5Kv99A1c4d+PcHMHIKyOtord1uNwZ1+E6De0kODqDtUA317xs4Y1FR72IHnbI/5hVy1+qtFDy2i6I1WbSsdOF7fhtbXglgLNnAXSsG+1UGB7nrCnE9vY2azbdzB/m4fVVs+cluWueUUFNXSo6RiUMHTtew5ftbaF1RQGE0H1VYVEDRsm3c8Vw5d93qovVGg4adpWx70SBvZwMV010sWOSC55uo2ljIpjYvvufKqekUVNh6LFd828vtvzPw3rmBwsWZ8H49NW8HYIKHudPPLTawv4xVy7bQMi+fDf9yE650Py2/q6c1bOD2uHEYborWeSj/YQPb1t9O5jdzCLywjdJHG8haX0n9g7n9npZ7ZQGejXdR+9A2AgGD3LWr6GyTXGvvIHdzHbuf3EDB933kZbWwa/MWak57Kaurpnhm9DXTgz49rfP2/nrH6+ZEtvQ65u/etTbEMdUjuXduldoT/aR9tlCcOmIs3yqdbmHlbY6uIQwrY2neXSJ5i1zi6LPL7pPajV5xpSOGwyXe+xu7nPAOB1VEuhx6R75UnA2rla3rvOJ2GoJuiHNer669r1bKVnvEmW6IY3qOFD5YK5XfdfW070StlN3mFfdUhxi6ZYPnxiLZvq+zx9IbvzQ+XtwxRIJgGOKckyP5GyuludOuUKtU35dvXUvdEMd0j+TdUyHNHYad7f312d1vlrJlVk8XR56Un+h51N+wXYpvtM6JdIe4lxXK1hd8A9dvPyS3EkoSd0bG3F+ST5SkqJLEnaSoksSd/wdKVab5OGIoZgAAAABJRU5ErkJggg==;imageBorder=default;" parent="1" vertex="1">
          <mxGeometry x="320" y="410" width="474.66" height="170" as="geometry" />
        </mxCell>
        <mxCell id="oEiYPniJlEZaM68x3fOY-2" value="" style="shape=image;imageAspect=0;aspect=fixed;verticalLabelPosition=bottom;verticalAlign=top;image=data:image/png,iVBORw0KGgoAAAANSUhEUgAAAJUAAABYCAYAAAD81LUlAAAABHNCSVQICAgIfAhkiAAAABl0RVh0U29mdHdhcmUAZ25vbWUtc2NyZWVuc2hvdO8Dvz4AAABAaVRYdENyZWF0aW9uIFRpbWUAAAAAAFRo4bupIHPDoXUsIDE1IFRow6FuZyA5IE7Eg20gMjAyMyAxNzo0ODo1MiArMDffax0tAAAUTUlEQVR4nO2de3RU1b3HP/vMmeQEEpjwnAgiIw8ZBJvhYQm2tYxFayxtCYVVEnXVG2kvN9rV3mjXtcHbdWnwtjToXS3oqgtorzbYaoNXNCnVJvbWNlHRBC+YoNhEixAsykQBZzKP87t/nIQ8CMlMOkgymc9as1ayz378ztnfs89vP84+SkSEJEniiHaxDUiSeCRFlSTu6BfbgCFBMIicPoN8+BHm4WYiB5swm9/GbD0OH52CUAjRddSYMWjOSWiXT8c2z40263KUwwHpo1CpqRf7LIYMI1dUIpgn3sd87XXCr+7HrH+NSNObyIcfQT9uZqTzD6VQYzLQrpiFbeGnsC3IRs+eh5o8EZT6RE5hqKJGoqMuvjZCTz5DeG8N5uG/Yp70gWmeN76y25Fw+PxiUwo1LhNt5uXYb1iGfdVXUOMcF8j6oc/IElUkQvj5P9O+aQuR5rf7FRIAdp2UNV9FGQbtO34VXRmahjblElJL/hX7DV7QR97DYGSIyjQx3zlCcGc5oYo9yKnTA6exaejXXYtRUoz/no1Eal+OqUg1ehT6V3JJKbwF20wXaCOnT5T4t1EwaLVO27YTee3gwK1TByojA/uKL6KmZKGNyejypaJEznxM6Ne7iRxoJHX9P6Ffv2zEOPMJfftIMEjwt08T+MGPiDT8X9SCAtCck7B5rkKlpqJfe03fzrem9e+UmybmgUbaN24mtOu3SKB9EGcx/EhYUUk4QnjPXtp/9ADm0WMxp1eTJ6GNzwRA/8K1aFOyeh4fPw7b1QtRacaAeZnH/06gbCvhJ56CcKxt3vAjMUUVChF+qpJAaRniaxswuho7Bu3SqT1bHSMVsdms45MnoV937Vm/SGka+nWfw+aejUQrko9OEfjJTwn+9ikkGIz5lIYTiScq0yRc8ycCP/ov5IOTUSXRxmWS+m/fQZvhOhumRo9GdfbclEL/wrWocVbLRfpo7F+9CUaPisk08bXR/p8PENpbDZHEbbESTlTmW820b9uBvHci6jTS3o7umY+9Y/gAsAYxuw0HaFfMwjb3CuvvK+ege65CGz8OdFtM9slJH+FtOzCb3owp3XAioUQlp88QfKyCyMGmfkfFzyF9NMoxBv3qhagpTlAK7YqZPR6HKnMsmucqlGFg934O0kejzZ6BSk+P2c7wm2/R/ujjSNuHMacdDiSUqCL76gnv2QuhUEzptLlzYNQo1NQstMumocaOwXblnB5xVGoqNvds1MQJ2BYvAMDmvgJt1ozYDQ2HCf++mvBfXoo97TAgYUQlp8/Q/vB/Y554P7aEKSnon1sKNhsqIwPtEie2q67ENv2ynvGUQrvEiTZtCtq0qVbQ+ExSvvZlsMX2CATrMRj8xa7oBmKHGQkjqkj1n6xR7xgnCGzTpmBf+CkAVEoK6hIn9q/ngXHuQKUak4E2/TIYm2EFaBr2L92AvvTq2A0WsVrWvdUk2qRGQohKfG0Ef1MR0+AmADYbtqsXwsQJ1v+aQr/2GvTPX9N3/FGj0C67FGW3d4UZqaTesQ7VMaYVE6ZJ8Fe/gZO+2NMOYRJCVJHXDhJpfCPmdCojHW3xAtSoNCtA07DNc6MyMvqOb6SiXNPOGUXX5s9FX/rpQS15ibzxFuFX98ecbigz7EUl7e1EXnoV+Sh230SbkoV+5ZyePlF/E7+GgW36pecEq1GjsH1mCSrGcSsAAgEif3kpoaZwhr2oONmGeehNCIdjS6cU2uXTUZc4o0+TmoJyXXZuuE3DNsPVNTgaC6YQOXQYibWDMYQZ9qIyj79H5G9HY3bQlU1Dc12GGj06+jSadt6VBmr8uMGJSgQ5dhzzWGvsaYcow15UcrINORnddEyPdEpDTcmKeUT8vKQZgxoIBaxB0BMfxMeOIcDwF9WZM3Dm49gTKoXKiL6VGjA73QZ2fVDOuvgDmKfPxM2Wi82wFxXhCBLjCDpgPS79cXSOwxFrJH8QY04qHIbgIM5hiDL8RRWJgDmIwUMxibx7NHYH/3zZnTo96Lk8EQEzcVYtDH9RIbEPegJETMxDh+MzTSKCeeRdzON/H1x60xxUCzdUGf6iiqIulKZBSkpPf0cEs/ENzEOH//EKDQYJ1+1DfL1GxpWyyh1BLz1AIrz4oBRK05D+Wqs0g9Sb12B+7IdjrUTePYZ59DjS+h6hZ36PbZ4bMgbXcwOIvH6I8N5qUBpq8nhrKbJzMlrWZBg9iuAjv4Z+HHE10Fr3YcawF5VoGqIp6EdT0t6OuiSLtJvXYH74IXzgw3z/A8yWv2G+93ciR46eXYAXM4EAkf0HsX/tK9hmz0A5J6MyHajMsZCRQfh/nkEFg/02qKIY1EqHocqwF5Vmt3e8QdyPoxuOEPpFOfYvXY82aSJMnIDGLLjm09aj7x9pJQyDlG+stfLonY+vjeAvH0MG6Nkp3d5zknqYM/wf9qPSrN8ARN45QvBXT0Ag0BWo1MCvWUVDX3mEQgSffMby2QYizYh5vftQZtiLSo1zoDKjmB4RIbT7acK1L1/4lw5ECL/2OqEnnopqDE2NHYOaMP7C2vQJMvxFNXkS2qVTompt5N1jBB9+ZFDvAcaC+cFJgg//ksihN6PqWSrnJLRYJraHOMPep1LjM9HmzEL9+cUBWwWJRAjXvUz7D36M7XwL8eJApPZlIr+viW78zGbDNmc2atLEC2bPJ83wF5VhoH96EaHfPBndCkrTJPSHPxL6wx8vuG1RkZqCbenVqD6WLw9Xhr2oAGzZ89FmzyDy4itRxdemT0NfmH3B7AnXv4bZ8k50tsx0oV+9IDlONdRQ4xykrFmJ/+VXo5oH1Bd5SP3xDy6cQffeRzAaUWmKlPzVqPHjLpwtF4GEEBVKYbvei754IeGXXx3QORZNoVJSLpw90UzLKIUt+yrsX/piQrVSkAC9v060sRmkrLsVlTk8tkVUjrGk3JaPGtv3SxbDmcRoqTqw5SxGv+l6Qo9V9L+kJdCOGcNeC7Ei/kD/EXQb+hc+b73EmoAk3PaMkdcPEbj734kcaLzYppwX2+wZGGU/xOa56mKbckFIqJYKwDZnNvZvfQPzP36MxLDuW02bijYhdodZTrZhvv236MsZO4aU9YXY5l8Zc1nDhYQTFTYN+xevg9NnCNx3v7W5fhTYV9xAytqvxVxcqGIP7Q88FF3kjHSMu+7EvuKG+L1wMQRJPFFh7dBiX7MSTJP2+x5ATg+8ulPeOYpyTopts9dgEPPo8ehsSh9N6nfWY795dcJvg50wvb/eqI490FO/9220yZMGjB956RUi+/ZHvzTZNAk3HCBSN/BW2Gr8OFLu/CYpN69JeEFBgrZUZ0lNJWXtKrRxDgLbtve7dFhO+mjfth01NsPam6qfsSYRwXzjMMGHdlrfrzkfSmGbPZOUb30D/abro1qikwgkXO+vTyKmtW3jz39J+Jm95+/y6zq2uVeQsu5W7LnLrfXlvZBgkPBzfyT4818QOXjo/BuspaZgv3E5Kf98G9oVs6z3AkcII0NUHUgwSKjyWYKbf4Yca+13XbuaPg37l29EX5SNNn485kkfkfrXCD29F/Ot5vMXohRq4gSMu+/EvvImGCEb8ndnRImqE/P4e4Qef4pwzf9i/vXtAb+cNSBKWdsSzXChf/6z2L++MqHWR8XKiBQVYL2idfQYZsNBwq/UE35lP/JWM/KxP+osVJqBNsOFbWE2tsUebJ6r0KZeMuJeyerNyBVVJyLQHkROn0beP0nkYBORA69j/vVt6+XQDz9CgiGUXYexHR+RnDEd25VubPPnoiaOtzbmMFITbmJ4sCRFlSTujOx2OskFISmqJHEnKaokcScpqiRxJymqJHEnKaokcScpqiRxJymqJHEnKaokcScpqiRxJymqJHEnKaokcScpqiRxJymqJHEnKaokcScpqiRxJymqJHEnKaokcScpqiRxZ2SI6pUNzLUr1PwNNMTnS2xJ+qFvUYV3U5ChUKrbz65Iy7qcpWs2sOvQAJt6XWSafrKUtIm3U5UU0EWh/70UdAeeG3NxO4BwgOMNNdQ8sYm6uhbYV07+kHxfsoWqPQ0EmHuxDRm5SF+EKiQ/HUH3SOmBbuH+Wimeh4AhuQ+3WvEcCI582V5VIl6nIc711R1xm6VyY77kzHGKYRjimOoW77oyqW7tVkZH2vK6rZK/yCmG4RDXsmKpPNIq1Rtzxe00xJjglrzNteLvZkbznhLJW+ISR7ohhtMt3vXbpd4nIie2S66BQOfPkJzNzSL7SsStI2SXSHVVqeRlO8VIt8qqaOmWsa9Wtq73inuqYdmyKE9K9jR3HGyU0iWGoLuk+IWzF0TKVxsChuTt6rAw1CwV9+ZJzkyHGAZiTHBJztpSqTzS55W2iq3bKkXL3eJ0GILhEGd2rhTtrO8651CrVG/OF2/ntZyZI/mbq8XXadl9OWJgSM7GCtm+1i2OdK88sKtIXDrCnGKpDXWVVX+PWwBxra8Wv4j4D5RL8QqPuByGGOlO8awolvKmznPpp377ITZRiU+2rzA6KqtRJFQphRMQdJe457kld12RlDzSKCKtUnGLSwBxfqZISn9aJiVrPeIAMbKLpfaU9Ey7LE9K7i+VvDmGlSbbIzlrS6Xs3jxxGQhGlx3+Z4vErSPGvHwp21Uh2+/NFZeOOFeXS6u/WaofLBSPgZDuleKd5VJ5wN8lquke8WR7pfDOQsmdaZXlWFkuls6bZetyh6A7xXv3dqnYtVUKFzkEwyMl+/xRi6pxs1XB7tWlsv2Rctl+b564DcRYUiaNfV3rU5VSOBXB6ZWi+7dL+c4yKfqMZUfhHks29Rs9YoC4VpZK+ePlUrrWLYbuEO9PLcE3358jBohzplvcS/Kl6LtlUt1aK8UzEXS3lOzrrNd6KZlnhRW/ICKt5ZI/FcGRI0UPVkjFw8XidSLMLJLq3nXUo37jJiq/tD5bIl6HVUhRjd8q1ImAw2q5OjlQKh4dYUK+VHTeTqGOSsEhebt8XWl1pxTusSqk9eFcMUBwFkrlKRGRVtm6vKPSHvGJiE/KV3bk8YhP/H6/+P3NVhzDK1tbpKu1mlAolZ13aKeojJwucb5QbN3JziKpDkmP1qz+lN/K+1nrbrfuzuhEVbnOKeAQ7+Z68YWsOM0N9dJ42NejtT1LS5nkGAhzCqWipSPGiUapbWiUVp+I+Duuk+GVrYc77DpRbrUg2SVSH+oSFXOKpbZbIbV3W62SZ2O9FdDQUS/zeqZzra/suJZ+qb/Xc24d9a7fAei/9xduYMP8Tmc9jazrN1HTZuC+pYwNy4yueIabpZ/tcrDaGuppCoMxfwGezh2odTc5HgfQRtOBlq60ugu328rLOTULAzDcHtzpAE5cTutYIBCAcAuNhwNAG7tvzSQtLY20tMu547kAhBtpGOgraNOX4p3TYfJMN24dCPhoA9qammgJA/s3sSAjzcr7+m20hKHtUBMt/WTbnaWrC3Cnt1HzvQVkZmYx11vAludaCExwYPSVYGouBcuccGgHq1yZZM5ayk3fK6fRZ+BwAO820dgGBGq4Y1aHXRML2NUGvNVEU7c+k2OxF0+3QnLW5OHWoamqiiag6ekKGsLgWVOAR4empiYCQMtDN3VcyzQW/LCBc+qoV/0ORPSOOmmkTXDiWVZAwQo3PXcrT8PR5xXrRZ+9sTSMTit0MHQI6HB2e7C+LNQd5N1fxV2Lu4cZOGeer4yuOGfNPM+ZG4uKKf/ZKrK6h6W7yKKv794EzinPsbyM+oZcyp+oouaFWur2VbHt+d3seKSYyroyvL2/qqu7KdrTwNIny6l4rpa6fbXUPLqJqkd3sPvBWiqXdRrhpbSqFG/3fdN0B26Ds5YZ6UZP4WavomDeJjbsr6TqUB6BqiYwcihY7e5hguu2csq/6ep+xhhON9Da8X+U9dtpVv+HXay6r5ySedFnCODwLMCt76bhQD0NbeByAOEm6hraAAcej6ubwTGgu5g7y4CDAdrCTnKWuIAALS/WchwHmQbQub1n2G9VeJR7BTrcblw6NB1vw8jOIccAjjdQ0xTAcDow8ONIA8I+Wo5Y50GgntoDAehWlW1vN9B0JItV95RReA8QaGLT8gVseLGKmkNleBf1Kvj0cZoONcLiIkpXF1t5PHk7C9bsoOZ3dbTd4mauA+reb8WfkUPOIiB8nIbnGwlkubpuyD6vl4e8NR5Kv99A1c4d+PcHMHIKyOtord1uNwZ1+E6De0kODqDtUA317xs4Y1FR72IHnbI/5hVy1+qtFDy2i6I1WbSsdOF7fhtbXglgLNnAXSsG+1UGB7nrCnE9vY2azbdzB/m4fVVs+cluWueUUFNXSo6RiUMHTtew5ftbaF1RQGE0H1VYVEDRsm3c8Vw5d93qovVGg4adpWx70SBvZwMV010sWOSC55uo2ljIpjYvvufKqekUVNh6LFd828vtvzPw3rmBwsWZ8H49NW8HYIKHudPPLTawv4xVy7bQMi+fDf9yE650Py2/q6c1bOD2uHEYborWeSj/YQPb1t9O5jdzCLywjdJHG8haX0n9g7n9npZ7ZQGejXdR+9A2AgGD3LWr6GyTXGvvIHdzHbuf3EDB933kZbWwa/MWak57Kaurpnhm9DXTgz49rfP2/nrH6+ZEtvQ65u/etTbEMdUjuXduldoT/aR9tlCcOmIs3yqdbmHlbY6uIQwrY2neXSJ5i1zi6LPL7pPajV5xpSOGwyXe+xu7nPAOB1VEuhx6R75UnA2rla3rvOJ2GoJuiHNer669r1bKVnvEmW6IY3qOFD5YK5XfdfW070StlN3mFfdUhxi6ZYPnxiLZvq+zx9IbvzQ+XtwxRIJgGOKckyP5GyuludOuUKtU35dvXUvdEMd0j+TdUyHNHYad7f312d1vlrJlVk8XR56Un+h51N+wXYpvtM6JdIe4lxXK1hd8A9dvPyS3EkoSd0bG3F+ST5SkqJLEnaSoksSd/wdKVab5OGIoZgAAAABJRU5ErkJggg==;imageBorder=default;" parent="1" vertex="1">
          <mxGeometry x="476.78" y="230" width="135.45" height="80" as="geometry" />
        </mxCell>
        <mxCell id="oEiYPniJlEZaM68x3fOY-10" style="edgeStyle=orthogonalEdgeStyle;rounded=0;orthogonalLoop=1;jettySize=auto;html=1;" parent="1" source="oEiYPniJlEZaM68x3fOY-3" target="oEiYPniJlEZaM68x3fOY-2" edge="1">
          <mxGeometry relative="1" as="geometry" />
        </mxCell>
        <mxCell id="oEiYPniJlEZaM68x3fOY-3" value="" style="shape=image;imageAspect=0;aspect=fixed;verticalLabelPosition=bottom;verticalAlign=top;image=data:image/png,iVBORw0KGgoAAAANSUhEUgAAAIoAAABNCAYAAAB5avxoAAAABHNCSVQICAgIfAhkiAAAABl0RVh0U29mdHdhcmUAZ25vbWUtc2NyZWVuc2hvdO8Dvz4AAABAaVRYdENyZWF0aW9uIFRpbWUAAAAAAFRo4bupIHPDoXUsIDE1IFRow6FuZyA5IE7Eg20gMjAyMyAxNzo1NDoyNyArMDdKWqPpAAASxUlEQVR4nO2df1BU193Gn3t3Fy4Ieom/LmICa6HjAjZs4zuA5U0LjTaS8bWhQ0dx8s6UVSdKTKvotJbkbZPS9J28vE4khDiGmkwmy5uYwUxUyIiCSU3NNESY1kQlGiQpZTXYrBmURXb3Pu8fu3tlYZGNpsGF+5m5M3DPOfd+z7nPPed7zj3nrECS0NEZB3GiDdCJDHSh6ISFLhSdsNCFohMWulB0wkIXik5Y6ELRCYspIxSSIAm32z0qzOv1auE6oZn0QlFVFb29vTh48CCWLVuGpKQkDAwMaOFOpxNJSUm499578eabb6Knpwder3cCLb5N4STF7Xazvr6eiqJQEAQKgkAAFASBhw4doqqqJMlDhw4FhQmCwKSkJL700kv0eDwTnIvbh0kplI6ODsqyrAng3nvvZUNDA48dO0ZBEGi1Wun1eun1ellaWkpJkvjRRx/x4MGDXLp0qSaYuLg4dnR0THR2bgsmpVB6e3tpNBo5Z84cdnV10ev1kvTVMmlpaRRFkRaLhRkZGYyNjeVdd93FoaEhLX1PTw9TU1MpCALPnj07Udm4rZiUPoqiKFi2bBkGBgYwc+ZMiKIvm0ajETt37kRGRgZmzJiB+Ph4pKWlYdu2bTCZTFp6QRBw7tw5zJ8/HykpKROUi9uMiVbqraKqKnfu3MlFixbx7NmzVFWVLpeLv/nNbwiAhw4dCpkm1N8BDh06RABcu3YtBwYG6PF4eO7cOebm5vKJJ54Iqn2mChEvlJaWFgqCQFEUaTAY+NprrzE/P5+CIDAmJobnz58flUZV1VHHcD766COaTCYC4N13382XX36ZBoNB811aWlq+odzdPkS0UK5cuUKz2czp06ezubmZ8fHxmmhWr17Nvr4+kj5heL1enjhxgps2beI999xDi8VCi8VCq9XK0tJSvv322/R4PJponE4nH3nkEU0gd9xxB/ft28eYmBjKsszu7u6JzPo3TsQKxev1cuXKlRRFkc888wxVVWVvby/Xr1/PZ555RnvoXq+XO3bsYEZGBkVRpCAINBqNVBSFiYmJjIqK0mqKtLQ0PvXUU3S5XCR9Atu1axdLS0t55swZqqrKvXv30mQycfny5VOq+xyRQlFVlS+88AINBgOLi4u1Xs3IpqSzs5P33HMPRVHknXfeyU2bNvGdd96hy+XS4rlcLh4/fpxbtmxhcnIyRVHkd77zHa3JGnlNVVW5atUqGgwGHjhwYELyPxFEpFD++c9/MjY2lqIo8vTp0yHjtLW10WQy0WQy8eGHH+bVq1c1QYXC6/XS7XazvLycsiyzurp6zLhDQ0OsqanhwMDALeclUohIobhcLmZkZBAA586dy48//jgo/JNPPtFE0tbWdkOBjCQwEBeqNzSVEcjI/BLmdrvx/PPPY+vWrYiJiYHD4UBsbCxUVUVeXh4++OADNDY24r777oMgCEFpXS4XfvWrXyE7OxurVq3SxlmG8+6776K2thaqqmrnoqKiMHfuXOTl5eH+++9HdHQ0AN/3pMrKSmRmZuLHP/5xyOtFPBOt1FtBVVWmp6czJSVFqwWqq6spCAI3bNgQ0tn0eDzMzs6mIAg0GAw8cuTIqDher5czZswggDGPtLQ0bXj/yy+/pCiKTE5OnrQ1UUTWKAGTT548iaysLJSWlqKurg6qqiIjIwNffPEFPv74Y8yYMWNU2osXLyI5ORkejwckUVhYiP379wfVOl6vFzExMfB4PNi4cSMWLFgAURTh9Xrx+eef49VXX8Vnn32GJUuW4M9//jMuXbqE2bNnQ1EU9Pb2jqrBJgUTq9OvhtfrZXl5OefOncs5c+Zob31TUxNJ8h//+AcNBgO3bt065ptdW1tLQRD485//nNOnT+eMGTN49erVoDgej0cbcPvTn/406hodHR00GAyMjo7mtWvX2NfXRwBUFGXS1igRJRRVVblgwQIC0MZE5s2bpw2p//rXv6YgCGxubg6ZfnBwkNOmTaMgCDxx4gRXrVpFQRC4ffv2IId3PKF4PB4mJCQQAD/77LMpIZSI9LoURcHly5cxMDCATz/9FCaTCSRx8OBBAEBGRkbIdO+//z6uXr2KuLg4pKenY/Xq1QCAF198EUNDQ2Pej/7ZbyShqiqOHTuGy5cvY9q0aUhMTPz6M3gbYpxoA26W6OhoREVFaf+rqoqenh4IgoBZs2aNik8SdrsdgiDgiSeegCRJ2ow3h8OBDz/8EIsXLw5KIwgC9uzZgyNHjkAQBLjdbvT09ODAgQMAgPz8fBiNEVuEX40Jrc++IoGmR1EUXrt2LSjM7XYzISGBoiiOCiPJzz//nLGxsYyKiuL777/Pzs5OdnZ2csOGDQTA7OxsrZcUaHoCE59GHqIo8v777+fFixdJcko0PRH7Oly7dg2qqsJkMsFgMMBgMCAhIQFffvklLl26hHnz5gXFf/311zEwMABRFJGdnQ3AV2OQhCAIaGtrwyeffIJvf/vbQemKi4sxa9YsqKqKmJgYpKSkYOXKlbjrrrsm53jJWEy0Ur8KoZzZpKQkzZldv349BUHg4cOHR6X9wQ9+oI3kJicnBx2xsbEEwD/84Q8kx3dmRzIVapSIEorX6+WWLVs4e/Zszpw5k/Hx8QTAxsZGkr55JKIosry8POiBdXZ20mQyMSEhIeiDYODr8oEDBygIAmVZZn9/vy6UEESUUAIEHvJf//pXCoLA0tJSkj4hfetb3+KcOXPodDq1+GvXriUA/uhHPwp5vS+++ILTpk0jANrtdl0oIYjIRlYQBAiCgEWLFsFisaC1tVX7JrNu3Tr09fVh+/bt2rm2tjYAwEMPPRTyerIsY8mSJQB833gEQYAkSRAEAQaDYVx7TCYTRFFEdHT05F1ENtFKvVmGhoa4c+dOmkwmxsfHa6OrXq+X2dnZjIqKYnNzM1VV5cGDB/nYY4/d8G13Op18+OGHeebMGZLk0aNH+Ytf/CKsqQQej4e//e1vuW/fvq/0pTqSiEihDA4O0mKxEADnzJnDzs7OoPDu7m5GR0czKiqKJ06c+Eoz0QJ+y2RtQm6WiGx6rl69ik8//RSiKOKdd94Z1aVNTk7GX/7yF4iiiJycHDz66KNwuVw3bBZIwuPxYNu2bZg5cyZqamrGjDs0NIRnn30Wg4ODX1uebnsmWqk3g6qqfP7558edCtnV1cXvfe97QVMh33777TGnQqakpFAQhHGnQq5Zs4aiKPLNN9+ckPxPBBEpFNL3wFasWBE0udrhcNBms42aXP3ss88yMzNTm0RtMBioKAoVRQmaXL1gwQL+7ne/CxLSrl27aLPZ2NnZSVVV+frrr+uTqyON/v5+pqSkcPr06Tx8+HDQco01a9aMWq7R1tbG9evX8+6772ZaWhrT0tK4aNEiFhcXs6mpiW63W/NPnE4nN27cSFEUKYoi77jjDr7xxhuMjY3Vl2tEIiMXgL366qtBC8C6urqC4oda/DXScT158qQ2jpKVlcVXXnlFE4y+ACxCCSwpTU9P15qH8ZaUjsfIJaVer5dnz55lTk7OlF1SGpFTIceDJFauXImjR4+it7cX8fHxWtiRI0fwy1/+EtOmTQNJXLlyBaWlpdi0aZMWx+FwYN68eUhKSkJ3d/fUmUpwIyZWp/8aLl68yKioqFHbXng8Hi5atEjb9iI9PZ2xsbG88847R217kZaWRkEQRo3RTFUmpVACG+nAP3/k+9//PhsaGvjuu+9SEARmZWVpvonNZqMkSTx16lTQRjoAGB8fr2+k42dSCoX01R6vvfYaExMTtW23AsJ56623brg1l6Io3LVr15Tq/o7HpPRRhqOqKi5cuIAPPvgA1dXV+Nvf/obu7m7ExsYC8G32l56ejtTUVGzZsgWLFy/GvHnzwvoYOJWY9EIJEMimx+MJ2l0J8K3jCcxWm5Rrcr4GpoxQdG6NiPwoqPPNowtFJyx0oeiEhS4UnbDQhaITFrpQdMJCF4pOWOhC0QkLXSg6YaELRScsdKHohIUuFJ2w0IWiExa6UG6Fw48g0SQg5j/3TbQl/3JuWSgXjj6HR/7ju1gwOwYxMTFIMH8XDzz6HN678HWYd5uTVoit2yvw2ArLv/Amp/H73BjfDg5pW/GeZ0TwgTVI8O/uoB3xiUgvWIPfH/Y/hEt/xAMxAoTEtWgamT5cbmV6nKO+hGYjCEhUFhewcEUBrSkSAVDKLGOLc/xr6IzDyUpajfDNATaaWdbqCg7fX0IZIObnsmh1CUtWF7Ewz0wJIOJyWdlBsq+OhRIIxcZG982ZcfNC6W+kbT4Io5lFe05RM9/tYMM6CyWjzMLdDv9JB1uetrFgoUJJkiinWFm0vYFdgUT7bZQBWjbbWbfaQlkuYYObpOsU7ZsLaZ0vU4qTac63sa7DNcqUAI7mSpbkmCnHgZKs0PpgBRuG/Xak81gVS/LMlOMkSvOtLHq8kQ5/wR3fZiEg07a7gWWLZUrL/5v/ky8RRgvL3xt2j+oCSgAt246TzWVUjKD0UIM/1MVT9eUszPLnMzWXturjvP6+uNi+u0wrByWzkOX1XRw7R2T741bCqND2VDmtRtC8oSU4vl8o0oP2oPs0rjMTAC2Pt0+wUAKFlFPJUyPDXE46NKtdbH/SSgmgklfGyuoqli/3Kd68odGXOf+15FQzLTkltG2uY7vbxZYNZsKosGBzHRvqq1iyUCJSbGwMVVM57CyaBUqZJazcbWfdDhtzZVBaXMlTbpJna1ggg9LCElbVN7BucwFlo8Tcp33Wtz/u20bDvNBK64M2llW38LRfFNYn2wM3Yd1yn3gq3uMooTj322g2+myo2FHJsjyFMMos3ONbreioL6FiBM0rKmjfa2fFcjMhWVj+3hhScbezItP/gJ3+v+fb2Ng/LE5IoZBdO3y2mze1TKxQnHsKKQGUf9Z444j9DSyZBSKukHWBCqa/kTbFf66PWoEjtYwtgUJw2lkkg0gtZ0u/iy6Xi47aQkqQWVQfQikdFb4qekUNT/mv4TjZzvazDrrofzMhsbDWQZfLRVd/C8tSQWRVsN0dCAfl4mEFfr6KBRIo5VWxiyT7/DZl+tIECyUgIjPLmv0P/nwDy39mo+3pFjrpYM1SiZCsrOzw5cfVUUmrBCobxlii+l45LUZQfqiBLvprPaNC2/5hwgohFNffW1ieI/nyu8dxmwjloXGE4m9jkVXpK1ySZBdrhlfrgQIvtl+vVgPpQuzzan28ffR93O2szPGv5ZFkmnMKaXvSzvY+knSxYbUU+pcy4opo778upILq4WuVu1iVLxFSAWv+Trr2+h6KZbv//sOF4m5hWQp8cR2jzdPCQ9ggLa1hqCTHN5sJyCzZ65fACOGQvO6jhDjkvEq2u/i1COWm10rKKRYkGptw/mQHTnsKYRl+pUsdaOqQsCTfAnmM9CG3oJEkSCPPLSyD/cU1MF+PBGl+iF6G0YqKw+3I/b967DvcitZjrfjjfzXBvrcdjW2VWtrCp1rxWP7wdDIsEnBeMyFmWKAZRSuW4LGjx9F0+DzMx1px2WhF2U+tY+TKz416FlIuKvb9Lx5IGHYqzjy6nAZbYX/DZ1X9TxNQPzzsrQY0XS5C0fBEKQUo+XcFMMYgRpJh/rdClKwugFkCcOXG5obDzXePcwtRlALgwxpsfeH09QfvOY/6LT/BA8vSseTJDiDFAosM4NxxtF/yx7ncgfbTg0CcBd9dOMb151tgiQNwyQkpMxe5ObmwKoDLA8hxo+QEXLmA0x9eQOKDFajZ24JTfz8Pe7GCwTNNaD0jwZzqE5cDMnJzcpGbY4HscgFSAqQbvC7mFYWwSoM4fvg57Dt6AcgsxE8yQ0Q0psOSJgGe8zh92l8a3fVYu+yH+OHGelzQwi9gULL6bMiUAReAOHnUCzJ4bB8aegBpYSFs62zaUbRYBi41wf7W5aD4ktWG5162w76nDnW1Vaj4mV8kXxc3VxH5cDaV0RLn7x5nhege+6v99sf9zmx+Oatqq1i+1ExAomWz34Mf1XvwpWvZ4I9XXMm63ZUsyZQIuYBVIX5G0NVcRrMRVJaWs+ZlO+17Klm0UCJmldDeR82Zxaxclu2oY83mAp9juc7nUGs+zO6RjUAXq/IkQpJGOLaj7Xbs9TmrUmYJK6urWJbvd2ZrA85skS88y8aq3XWseNBMyaiw6OWR93SxcZ0S0h5Xk83n+Ad8kjGc2SAmtNfjx9lWx/LiXFoUiZLR1/Ut3FzH433DIrkdbHm6hLmpstZtLHnqetc0tFCodY8tiuT3O0pY2RqqNSe1rmemQlkCEafQstTGqmPXi8/RWuXrPkugpFhYuMnOU/7GfmyhkF07cn3jEkYrK08OCwjRPW7fc737Ky8sGNE9drK91saChbKvrFILaKs9PvoB9zewRAEhF/lEHpRNv68T6Bx8Q0LRF4DphIX+rUcnLHSh6ISFLhSdsPh/1KfAWOXrfnUAAAAASUVORK5CYII=;imageBorder=default;" parent="1" vertex="1">
          <mxGeometry x="480" y="80" width="129" height="71.98" as="geometry" />
        </mxCell>
        <mxCell id="oEiYPniJlEZaM68x3fOY-9" style="edgeStyle=orthogonalEdgeStyle;rounded=0;orthogonalLoop=1;jettySize=auto;html=1;" parent="1" source="oEiYPniJlEZaM68x3fOY-4" target="oEiYPniJlEZaM68x3fOY-3" edge="1">
          <mxGeometry relative="1" as="geometry" />
        </mxCell>
        <mxCell id="oEiYPniJlEZaM68x3fOY-4" value="" style="shape=image;imageAspect=0;aspect=fixed;verticalLabelPosition=bottom;verticalAlign=top;image=data:image/png,iVBORw0KGgoAAAANSUhEUgAAAJIAAABMCAYAAACGT+7RAAAABHNCSVQICAgIfAhkiAAAABl0RVh0U29mdHdhcmUAZ25vbWUtc2NyZWVuc2hvdO8Dvz4AAABAaVRYdENyZWF0aW9uIFRpbWUAAAAAAFRo4bupIHPDoXUsIDE1IFRow6FuZyA5IE7Eg20gMjAyMyAxNzo1NjoyNiArMDc1H40kAAATiElEQVR4nO2df1BU1/nGn7sseJeu4TJF2GVwAJXWS8G4JBqXmkyl1UQckwkO3ynspJ241EnUpI0Qp1HSNgbtTKrGH2haq2nHBNNqARsEExPXsTbgRAeSGrLRENDRuKhYNtHCKst9vn8sXFkXhOAaBO5nZv/gnvece87ZZ9/znnPPuQgkCQ2N20Q31BXQGBloQtIICpqQNIKCJiSNoKAJSSMoaELSCAqjWkgk4fV6A64rigJtVeSbMeqERBLnz5/Hvn37MGfOHJjNZrS3t6vpra2tMJvNeOihh7B3716cO3cOnZ2dQ1jjYQJHCV6vlyUlJYyJiSEAv8+7776r2r377rsB6bGxsfzrX/9Kr9c7hC24uxkVQqqrq6MkSQRAQRD40EMPsby8nB988AEFQaDFYqGiKFQUhXa7naIo0ul0srKykrNnz6YgCARAo9HIjz76aKibc1cyKoTkcrmo1+sZHR3NpqYmKopC0uelkpKSCICyLDM5OZkGg4Hjx49nR0eHmv/LL7/khAkTCIANDQ1D1Yy7mlERI8XExGDOnDloa2tDVFQUBEEAAISEhGDTpk1ISUlBREQE7rnnHiQlJWH58uXQ6/Vqfp1Oh6amJowfPx7x8fFD1Yy7m6FW8p1g48aNTE5OVr2Hx+Phb3/7WwLggQMHbpm321v1pDtustvtbG9vJ0k2NjbSarXyd7/7HTs7O4PfiGHGiBOSw+FQYxpBELh7927OmjWLACiKIk+fPn3L/L0Jyel0Uq/XEwCnTJnCN954gzqdTg3GDx06dIdaM3wYUUJqa2tjQkICx44dy4MHD/I73/mOKqqcnBxevnzZz762tpZLly5lWloak5OTKcsy09LSuHDhQh4+fNjP03z11VdcunSpWp4kSSwvL6coipQkiWfOnPm2m3tXMWKEpCgKH3vsMQLghg0bSJIXLlzgokWLuGHDBlUUiqJw/fr1TE5OVr1WSEgITSYTzWYzw8LCVLFMmjSJa9asocfjUe/zxz/+kQsXLuSpU6dIkrt376Zer+cjjzwyqoe4ESOkHTt2UKfTMTs7u0+bkydPMi0tjQA4fvx4PvPMMzx8+LCfUDweD6urq7ls2TLGx8dTEAROmTKFTU1NvZapKApzcnIoCAIrKiqC3axhw4gQ0uXLl2kwGKjT6Xjy5MlebY4dO0a9Xk+9Xs+nnnqKbW1tvcZDPens7GR+fj4lSeLmzZv7tOvo6GBxcTGvXbt2W+0YzowIIXk8HsqyTAAcN25cwFpPY2MjQ0NDGRoayuPHjw9RLUc2Ajkynk56vV689tpreO655xAeHo4LFy7AYDCAJH74wx/i2LFj2L9/P37yk58E5L127Rqef/55WK1W5OTk9Fr+Bx98gC1btoC+Hx8AICwsDDExMZg5cyYyMzMRGhqq2q9atQqpqal4/PHH70yD7zaGVMZ3gMmTJzMhIUEdtjZt2kQAfPrpp3u17+zs5PTp0wmAISEhfP/99wNsFEVhREREwDO4np9Jkyapj0++/vpr6nQ6xsfH9zt8jhRGjEcCgBMnTmDKlCmw2+3Yvn07AECWZfz3v//FqVOnEBEREZDn0qVLGD9+PDo6OqAoCubNm4d9+/b52SiKAlEU0dHRgSVLlmDChAnQ6XTo7OzExYsX8dZbb+Hs2bOwWq2orq7G5cuXERUVBZPJhPPnz6sr6SOaoVby7ZKfn8/o6GhGR0fznnvuoSAI3L9/P0ny/Pnz1Ol0LCgo6DP/1q1bCYC/+tWvOHbsWEZERLCtrc3PprOzk6GhoQTAI0eOBJTx8ccfU6fTMSwsjNevX2dLSwsB0GQyjRqPNKyFpCiK+jBVEAQKgkCz2axu91ixYgUB8L333us1/7Vr1xgeHk4ArK2tZU5ODgHwhRde8LPrT0iKojAyMpIAePbs2VEppBHx0NZkMuGrr75CW1sbzp49i5CQEABARUUFBEHAD37wg17zffjhh2hra4PRaERycjJ++tOfQhAE/OUvf8H169cHfP9//etfcLvdCA8Ph9lsDkqbhhv6/k2GB2PGjEFYWJj6t6Io+PLLLyEIAr773e/2mufNN9+EIAh4+eWXMWbMGDz88MOIjY2Fy+XCiRMncN999wXkef311/H+++8DADo6OnDu3DlUVFSAJGbNmqWKeNQx1C7xduge2kwmU8BioNfrZWRkJHU6Xa8LhZcuXaLBYGBYWBiPHz/OkydP8uTJk1y8eDEBcPr06eojj55D280fQRCo0+n4yCOP8OLFiyQ5Koe2EeORrl27BkVREBoaipCQEISEhCAyMhJutxuXL18OGHJ2796t7tWeNm1aQHnHjh1DQ0MDvve97/ldz87Oxrhx49SZXEJCAh577DHEx8ePjtlZH4wIITU3N6tTe5PJpMZJs2fPxrZt21BfXx8gpD179gDwbXoTRdEv7dKlS2hra0NZWRl+/etf+6U9++yzmDlz5h1szTBlqF3i7bJs2TJGRUUxKiqKY8eOpSAIrKqqIknW19dTEISA6f+pU6eo1+spSZLfA9tu9u3bRwCMiIjg1atX+5213cxoHNqGvZB68p///IeCIHDhwoUkb8RQ0dHRdLvdql1eXh4B8OGHH+61nNbWVnVZYNeuXZqQBsCImP53k5qaiu9///twOBwgCUEQsGjRIly8eNFviPrwww8BAD//+c97LSciIgLp6ekAgCNHjkAQBHX40+n677LQ0FDodDqMGTNm9MRNQ63kYNHR0cGNGzdSr9fTaDSqq9OKovCBBx6gXq9XFyb37dvHwsLCW3qLr7/+mk899ZS6ge3w4cP85S9/GbDq3RuKovCll15ieXl5EFo2PBgRz9quX7+Oe++9F5999hnGjRuHmpoaTJw4UU0/c+aMOvs6evQoLBbLUFV1xDIihrarV6/izJkz0Ol0+Pe//+0nIgCIj49Xh7Pp06djyZIl8Hg8/ZarKAoKCgoQGRmJ4uLiPu28Xi+Ki4u/0Wr4iGOoXWKw+NOf/kRBEG651baxsZHp6ekBW23b29vVk7Yej4c1NTXMz89nQkICATA1NbXPrbYkabPZKAgC//nPf96Blg0PRoyQFEXh/PnzCYAbN24k6dv8n5eXx40bN/pt/t+8eTNTUlL8Nv/HxMTQZDL5bf5PTExkUVFRwOZ/u92uxk7/+Mc/qNfrOXfuXG3z/0jhf//7H+Pj4wOOIwmCQJvNxpaWFj/748ePc9GiRZw6dSqTkpKYlJTE1NRUZmdn85133vF7aYTb7ebixYvV8iRJ4t69e2kwGLTjSBxhQiL9D0gC4N/+9rdvdECyN+rr6xkSEkIAvPfee/nmm2/63cPhcNyBlgwvRpyQSN+RbVmW+fnnn5P8Zke2e+PAgQMEwLy8PHWY++KLL/jAAw/wpZde0l53wxEy/R8Ijz76KA4dOgSXywWj0aheP3jwIJYvXw6j0QhFUXDlyhXk5eVh6dKlqk1zczNiY2MRGxuL06dP+71gQqOLoVbyt8GFCxcYGhrK6OhoNjY2qguRnZ2dTE1NVV9rI8syDQYD4+LiAl5rM3HiRAJQg2wNf0bEOlJ/uFwuhIeH4+LFi5g4cSJ+9KMfYe/evTh69Cg++eQTTJ06FfX19aivr4fNZkNLSwsaGhpQVVWFOXPmIC4uDl988QWMRiPa2tqGujl3J0Ot5G8Lr9fLv//97zSbzQGb09555x3VrrdX/8XExHDbtm1aLHQLRk2M1A1JuFwu1NbWYsOGDfj4449x5swZhIeHA/C9jFSWZSQlJSE/Px/33XcfYmNjR+8W2gEy6oR0M52dnQEiURQFgiCMnif3QWDUC0kjOIyKYFvjzqMJSSMoaELSCAqakDSCgiYkjaCgCUkjKGhC0ggKmpA0goImJI2goAlJIyhoQtIICpqQNIKCJiSNoKAJaaB4yrBgrAAhqQA1gf+Y+85wbgt+bBBgmLYazm/ploPl9oR01Yldv7Hhx6lmRI41wBBpRnKGDYV7nFAPRFfYENm1tyd5RY1fdvdbC7rSDEj/QxMAJ1ZbDepeIEEQIIQaEJmYhnnLdsF5tbdK9JZHgGHcBKQ9WoAdH/V/NHu44ym3wRzq68d5f26+KXVgfVqzbILve3i1aVB1GPxxiKs1KJydidVH3UCUDOuDaYi80oTqI7uw+ogDdS0OVD4t+93Jub8SdaussOgBwAPHfgfcegABv3AJ8uwMWKJEeDzNaKqpRtWrNtS2iHDuzILUa0skWB63IT3KV7arrhJVFeuQd8KDxBPFyDD2lmkk4EbVnio0Q4JkdMOxpxTNv1gCU4Ddrfv0thnsHt3G9VaKAMUZ+Tx46cb11mNrmREFiin5PNhO8u1cSgDlqTJF0cKiE12G7ZW0m8DEFJmSXqT1lUaSn7JohkjoZa481uNmn69lhhGEMYslrTfXpI887Qe5JAGEaGWRs+taRyMrX8yiJUGiKIo0pWQyv6zxRh6/dImJM3JZdMDVVV4ps4wgJuWzuoPklWquvF8kjFaurPH9e9LWI2uZOzORklGkGGdh1ouVdHUdRql+XiYg0b6rmsVPWGgyipQmZ3Jld/kkeekgix6XKRlFmlKyWLSziBkiKN5fxE/7+iJaS5gVBYozV7IoWyLEDBY3DaB/burT6ucSCYi0rm/kYBjk0NaMqv118OglZC0vQkZUD93fn4/SEy60nliLDPXVjCKkaemwwInK/T7X6TlSBUeLCdYH5V480k0kyEg0AvC60TrAkcr9SQ2cbgCmNFjjfNeaNudhwctlcFsKsGNbIdKvVmHdz/Kw5TQAeFCzYh4WvFwFd6odRavskJt3oTArC6s/ualwbzPKFtuw+iMzcreWoGiGCDRswYL5BShrsaJwWwmKsyPh+P0CZL3qi2587+lyw7GqEI44GwqetAANVVi9qAgOjy+t7FkbCsudiJy1BAWLZNRuKkZtP33jriiFo0WE5VEb7PMzIHmqUVI+gOFpEH16SwYlv45q5k/y/drXft6P7du5lCDSuqqEK6eC4qxiNrLrFxCVy5LXu9L78kgdrazdlsVEfQ9v4EdXnl5eXSxOyuLaY+2qZaOjhCU7S1jd5QQOPm0iIDG3rJ28UsrcKPjq1OX1WquKaH/CzpVvu254pIQlLH4lw+dFX6xmd+m1L1oIiMzc6mJ7ezvbrxzkkkkgpq5kbUd3Omj6RaUvT0ctV6b08JhXSpkrgZCyWNLl4dur7DTpb+WRXNw+X7xRxqXtzDKC4oy1PewH1qe365EGHyN15xzoDEYvY95cGas3l6HqdBpc7zVBerAIGVJloK3XidXTBKzueU1MRO6aAlj7qrFegjXbhrQu7+hpccJRUYbCHBukilLYJwPmyHZU/34d8pfZ4fYA8HgAiL42nHb6PNjUZFi64ilp7kpsn9tVfvevtnkHClZ44IGM9DkWiF2JTQ1OAB5ULTbDsLhHvYxOOD2AL1oUkWxJ8+XRm5E4XgQ+86DdA+CcE00eAJNlyF1BoJhqQbIeqO6rT89VouyQB0iZh6zJADAPmbNElL1XgrJP8rEyZeB96j8N+uYMTkj6RMiJIvCZE7Un3MBk//C36VAVmpMyYI3r+dphEZbMTCT+YQccr5fC1SAifVkmJH0vQtJLsMzNhCwZYNADYpwFGf9nQ1ZKr2F2F2ZkLCtG0f03rjT/eR4SF5WhcH0VbFsjUfREHrZ8JsP+ugP50yTUrcmA7Q23fzH9/TC8EizZaXDvqcKW32yB/UA+ZLUXRWSucaBwln9bZBHoHmzEHra3S3PFLjiuAjheiGShsEdKHUrL67Aypceb6QbVpwNnkB7JhHnzMyDur0LZmiI4HlyLjK5pgvvoatiyClGjz0KJsxS5PXKJMzKRGbcOJa/tgFufge1zJYjHeivfjMzflPiJYlB4fW7EfdUDtHyKugYApgzk5lgh65vhaPaJyAMAcTJkI1B3uhZ1VwFZAtwVBVjwah1M2cUoebKrzAQb1u0shEsvY8Fba1H4lg2lT5iQOEkG4IQLEqwzZABuOA/Vwj0usYd4bkFcIswiVM9oiQI8dXX4tE9hN6F0TzU8ehOs2fOQ3D0r9TbB8YYDdbtLUfeCpWuGDAStT/tg0EOb6RdrsbaiFkv3r8OP5TJYrTIiPU2oPuKEGyZkbipCbtRNmfTpyJprwpbXmiHOzsS8wDnqbeBC1StL4e4e2txOOCoc8OhNyJ2fDlGqhTkKQLMDOzbvQpNrB3a4EiHCCef+Haix2mF/QsauzWUo/FkhWmd5ULVpHRwtVhSt94nkBhKyVhQgo7wAZauK4Hi8GBk/syNj81I41tuxVLRDPrsLRZsdMDxZidptmf1X35iJBbMllO0pQ+HCQrhmeeDYWQkPuoTuhf+31VCGkhoPMMmGdTvX9hjym7Du82QUHC1D6UdFsNwh4QQwqMiqm/ZGVr5iZ+bUrimv0UR5Vi6L3m5Ug1A12F7jC/98AaTIjO6g7u1+gu1+6SPYNkpMvD+L+Ts/VevSuHsJrQkiRWMirU9uZ+3ZSuZPlSgaE2l/u51sb2Tp85m0xIn9T//ZzurnZAIiLatqSZIux1rmzkikJIKiSWbmMyX8tOvmajC+rXu638rtc0VCb+HKuq5LZyuZPzuRkijSNDWXa6uKffdM8QXsfq1e41t+kV+oDeiRxq0ZvrTnqwfcp7cbbGsHJDWCgvasTSMoaELSCAqakDSCwv8DTlLdJuUV4iUAAAAASUVORK5CYII=;strokeWidth=1;imageBorder=default;" parent="1" vertex="1">
          <mxGeometry x="291" y="80.99" width="134.47" height="70" as="geometry" />
        </mxCell>
        <mxCell id="oEiYPniJlEZaM68x3fOY-8" style="edgeStyle=orthogonalEdgeStyle;rounded=0;orthogonalLoop=1;jettySize=auto;html=1;" parent="1" target="oEiYPniJlEZaM68x3fOY-4" edge="1">
          <mxGeometry relative="1" as="geometry">
            <mxPoint x="200" y="115.99000000000001" as="sourcePoint" />
          </mxGeometry>
        </mxCell>
        <mxCell id="oEiYPniJlEZaM68x3fOY-14" value="" style="endArrow=classic;html=1;rounded=0;exitX=0.452;exitY=1;exitDx=0;exitDy=0;exitPerimeter=0;entryX=0.126;entryY=0.059;entryDx=0;entryDy=0;entryPerimeter=0;" parent="1" source="oEiYPniJlEZaM68x3fOY-2" target="oEiYPniJlEZaM68x3fOY-1" edge="1">
          <mxGeometry width="50" height="50" relative="1" as="geometry">
            <mxPoint x="460.9483499999999" y="389.99999999999994" as="sourcePoint" />
            <mxPoint x="360" y="400.96" as="targetPoint" />
          </mxGeometry>
        </mxCell>
        <mxCell id="oEiYPniJlEZaM68x3fOY-15" value="" style="endArrow=classic;html=1;rounded=0;entryX=0.232;entryY=0.059;entryDx=0;entryDy=0;entryPerimeter=0;" parent="1" target="oEiYPniJlEZaM68x3fOY-1" edge="1">
          <mxGeometry width="50" height="50" relative="1" as="geometry">
            <mxPoint x="540" y="310" as="sourcePoint" />
            <mxPoint x="430" y="400" as="targetPoint" />
          </mxGeometry>
        </mxCell>
        <mxCell id="oEiYPniJlEZaM68x3fOY-16" value="" style="endArrow=classic;html=1;rounded=0;" parent="1" edge="1">
          <mxGeometry width="50" height="50" relative="1" as="geometry">
            <mxPoint x="540" y="310" as="sourcePoint" />
            <mxPoint x="530" y="420" as="targetPoint" />
          </mxGeometry>
        </mxCell>
        <mxCell id="oEiYPniJlEZaM68x3fOY-17" value="" style="endArrow=classic;html=1;rounded=0;entryX=0.906;entryY=0.059;entryDx=0;entryDy=0;entryPerimeter=0;" parent="1" target="oEiYPniJlEZaM68x3fOY-1" edge="1">
          <mxGeometry width="50" height="50" relative="1" as="geometry">
            <mxPoint x="540" y="310" as="sourcePoint" />
            <mxPoint x="590" y="440" as="targetPoint" />
          </mxGeometry>
        </mxCell>
        <mxCell id="oEiYPniJlEZaM68x3fOY-19" value="" style="endArrow=classic;html=1;rounded=0;entryX=0.758;entryY=0.059;entryDx=0;entryDy=0;entryPerimeter=0;" parent="1" target="oEiYPniJlEZaM68x3fOY-1" edge="1">
          <mxGeometry width="50" height="50" relative="1" as="geometry">
            <mxPoint x="540.05" y="310" as="sourcePoint" />
            <mxPoint x="548.9625714285714" y="400" as="targetPoint" />
          </mxGeometry>
        </mxCell>
        <mxCell id="oEiYPniJlEZaM68x3fOY-20" value="" style="endArrow=classic;html=1;rounded=0;" parent="1" edge="1">
          <mxGeometry width="50" height="50" relative="1" as="geometry">
            <mxPoint x="540" y="310" as="sourcePoint" />
            <mxPoint x="580" y="410" as="targetPoint" />
          </mxGeometry>
        </mxCell>
        <mxCell id="oEiYPniJlEZaM68x3fOY-26" value="&lt;font style=&quot;font-size: 13px;&quot;&gt;Pull metrics&lt;/font&gt;" style="text;html=1;strokeColor=none;fillColor=none;align=center;verticalAlign=middle;whiteSpace=wrap;rounded=0;labelBackgroundColor=#FFFFFF;" parent="1" vertex="1">
          <mxGeometry x="459.5" y="360" width="170" height="30" as="geometry" />
        </mxCell>
        <mxCell id="oEiYPniJlEZaM68x3fOY-27" value="&lt;font style=&quot;font-size: 13px;&quot;&gt;Pull metrics&lt;/font&gt;" style="text;html=1;strokeColor=none;fillColor=none;align=center;verticalAlign=middle;whiteSpace=wrap;rounded=0;labelBackgroundColor=#FFFFFF;" parent="1" vertex="1">
          <mxGeometry x="360" y="360" width="170" height="30" as="geometry" />
        </mxCell>
        <mxCell id="oEiYPniJlEZaM68x3fOY-28" value="&lt;font style=&quot;font-size: 13px;&quot;&gt;Pull metrics&lt;/font&gt;" style="text;html=1;strokeColor=none;fillColor=none;align=center;verticalAlign=middle;whiteSpace=wrap;rounded=0;labelBackgroundColor=#FFFFFF;" parent="1" vertex="1">
          <mxGeometry x="560" y="360" width="170" height="30" as="geometry" />
        </mxCell>
        <mxCell id="nkPn_ZVwi3yjm1Z2I7Hz-1" value="" style="image;points=[];aspect=fixed;html=1;align=center;shadow=0;dashed=0;image=img/lib/allied_telesis/computer_and_terminals/Personal_Computer_with_Server.svg;" vertex="1" parent="1">
          <mxGeometry x="120" y="75.99" width="80" height="80" as="geometry" />
        </mxCell>
        <mxCell id="nkPn_ZVwi3yjm1Z2I7Hz-2" value="&lt;b&gt;&lt;font style=&quot;font-size: 14px;&quot;&gt;User&lt;br&gt;CMP-Frontend&lt;/font&gt;&lt;/b&gt;" style="text;html=1;strokeColor=none;fillColor=none;align=center;verticalAlign=middle;whiteSpace=wrap;rounded=0;" vertex="1" parent="1">
          <mxGeometry x="120" y="170" width="100" height="30" as="geometry" />
        </mxCell>
      </root>
    </mxGraphModel>
  </diagram>
</mxfile>
